<svg width="226" height="75" viewBox="0 0 226 75" fill="none" xmlns="http://www.w3.org/2000/svg">
<mask id="path-1-inside-1_31_46" fill="white">
<rect x="0.75" y="54.5178" width="65.8298" height="7.74468" rx="1"/>
</mask>
<rect x="0.75" y="54.5178" width="65.8298" height="7.74468" rx="1" fill="#02396C" stroke="#0C1E40" stroke-width="3" mask="url(#path-1-inside-1_31_46)"/>
<rect x="0.75" y="23.5391" width="34.8511" height="23.234" rx="7" fill="#02396C"/>
<rect x="43.3458" y="44.837" width="23.234" height="15.4894" fill="#02396C"/>
<path d="M57.25 32L67.2093 47H47.2907L57.25 32Z" fill="#02396C"/>
<rect x="43.3458" y="31.2838" width="13.5532" height="13.5532" fill="#02396C"/>
<circle cx="12.367" cy="62.2625" r="5.80851" fill="#02396C"/>
<circle cx="54.9627" cy="62.2625" r="5.80851" fill="#02396C"/>
<path d="M49.2833 62.0044H43.2167V37.7377C43.2167 34.8778 43.2167 33.4479 44.1051 32.5595C44.9936 31.671 46.4235 31.671 49.2833 31.671H51.5134C54.8689 31.671 56.5467 31.671 57.9374 32.4585C59.3282 33.2459 60.1915 34.6846 61.9178 37.5618L65.7543 43.956C66.6134 45.3878 67.0432 46.1039 67.2631 46.8987C67.4833 47.6934 67.4833 48.5285 67.4833 50.1983V55.9377C67.4833 58.7975 67.4833 60.2274 66.5949 61.1159C65.7064 62.0044 64.2765 62.0044 61.4167 62.0044M49.2833 62.0044C49.2833 65.355 51.9994 68.071 55.35 68.071C58.7006 68.071 61.4167 65.355 61.4167 62.0044M49.2833 62.0044C49.2833 58.6537 51.9994 55.9377 55.35 55.9377C58.7006 55.9377 61.4167 58.6537 61.4167 62.0044M65.9667 46.8377H58.3833C55.5235 46.8377 54.0936 46.8377 53.2051 45.9492C52.3167 45.0608 52.3167 43.6309 52.3167 40.771V39.2544" stroke="#0C1E40" stroke-width="1.5" stroke-linecap="round" stroke-linejoin="round"/>
<path d="M18.9499 62.0044C18.9499 65.355 16.2338 68.071 12.8833 68.071C9.53273 68.071 6.81659 65.355 6.81659 62.0044C6.81659 58.6538 9.53273 55.9377 12.8833 55.9377C16.2338 55.9377 18.9499 58.6538 18.9499 62.0044Z" stroke="#0C1E40" stroke-width="1.5" stroke-linecap="round" stroke-linejoin="round"/>
<path d="M1.36634 28.7961C0.968461 30.6263 0.75 32.6193 0.75 34.7044C0.75 36.7894 0.968461 38.7824 1.36634 40.6127C1.87916 42.9717 2.13557 44.1514 3.80211 45.4945C5.46865 46.8377 7.14375 46.8377 10.494 46.8377H25.8893C29.2397 46.8377 30.9147 46.8377 32.5812 45.4945C34.2477 44.1514 34.5043 42.9717 35.017 40.6127C35.4149 38.7824 35.6333 36.7894 35.6333 34.7044C35.6333 32.6193 35.4149 30.6263 35.017 28.7961C34.5043 26.437 34.2477 25.2574 32.5812 23.9142C30.9147 22.571 29.2397 22.571 25.8893 22.571H10.494C7.14375 22.571 5.46865 22.571 3.80211 23.9142C2.13557 25.2574 1.87916 26.437 1.36634 28.7961Z" stroke="#0C1E40" stroke-width="1.5" stroke-linecap="round" stroke-linejoin="round"/>
<path d="M24.2583 22.571V46.8377M12.125 46.8377V22.571" stroke="#0C1E40" stroke-width="1.5" stroke-linecap="round" stroke-linejoin="round"/>
<circle cx="33.1348" cy="19.3848" r="10.7693" fill="#04386B"/>
<path d="M19.958 6.20801C27.2353 -1.0693 39.034 -1.06928 46.3115 6.20801C53.5888 13.4853 53.5888 25.284 46.3115 32.5615L33.1348 45.7383L19.958 32.5615C12.6807 25.284 12.6807 13.4853 19.958 6.20801ZM33.1348 10.0195C27.9624 10.0195 23.7695 14.2124 23.7695 19.3848C23.7695 24.5571 27.9624 28.75 33.1348 28.75C38.3071 28.75 42.5 24.5571 42.5 19.3848C42.5 14.2124 38.3071 10.0195 33.1348 10.0195ZM33.1348 15.8271C35.0997 15.8271 36.6924 17.4199 36.6924 19.3848C36.6924 21.3497 35.0997 22.9424 33.1348 22.9424C31.1698 22.9424 29.5771 21.3497 29.5771 19.3848C29.5772 17.4199 31.1698 15.8272 33.1348 15.8271Z" fill="#0591A6" stroke="#0C1E40" stroke-width="1.5"/>
<mask id="path-14-outside-2_31_46" maskUnits="userSpaceOnUse" x="78.75" y="23.071" width="147" height="41" fill="black">
<rect fill="white" x="78.75" y="23.071" width="147" height="41"/>
<path d="M80.392 62.071V27.1619H94.8125C97.4261 27.1619 99.6818 27.6733 101.58 28.696C103.489 29.7074 104.96 31.1222 105.994 32.9404C107.028 34.7472 107.545 36.8494 107.545 39.2472C107.545 41.6563 107.017 43.7642 105.96 45.571C104.915 47.3665 103.42 48.7585 101.477 49.7472C99.5341 50.7358 97.2273 51.2301 94.5568 51.2301H85.6591V44.5824H92.9886C94.2614 44.5824 95.3239 44.3608 96.1761 43.9176C97.0398 43.4744 97.6932 42.8551 98.1364 42.0597C98.5795 41.2529 98.8011 40.3154 98.8011 39.2472C98.8011 38.1676 98.5795 37.2358 98.1364 36.4517C97.6932 35.6563 97.0398 35.0426 96.1761 34.6108C95.3125 34.179 94.25 33.9631 92.9886 33.9631H88.8295V62.071H80.392ZM111.705 62.071V35.8892H120.04V62.071H111.705ZM115.881 32.8381C114.71 32.8381 113.705 32.4517 112.864 31.679C112.023 30.8949 111.602 29.9517 111.602 28.8494C111.602 27.7585 112.023 26.8267 112.864 26.054C113.705 25.2699 114.71 24.8779 115.881 24.8779C117.063 24.8779 118.068 25.2699 118.898 26.054C119.739 26.8267 120.159 27.7585 120.159 28.8494C120.159 29.9517 119.739 30.8949 118.898 31.679C118.068 32.4517 117.063 32.8381 115.881 32.8381ZM137.567 62.5654C134.805 62.5654 132.436 61.9972 130.459 60.8608C128.493 59.7244 126.982 58.1449 125.925 56.1222C124.868 54.0881 124.339 51.7358 124.339 49.0654C124.339 46.3835 124.868 44.0313 125.925 42.0085C126.993 39.9744 128.51 38.3892 130.476 37.2529C132.453 36.1165 134.811 35.5483 137.55 35.5483C139.97 35.5483 142.078 35.9858 143.874 36.8608C145.68 37.7358 147.089 38.9744 148.101 40.5767C149.124 42.1676 149.663 44.0369 149.72 46.1847H141.93C141.771 44.8438 141.317 43.7926 140.567 43.0313C139.828 42.2699 138.862 41.8892 137.669 41.8892C136.703 41.8892 135.857 42.1619 135.129 42.7074C134.402 43.2415 133.834 44.0369 133.425 45.0938C133.027 46.1392 132.828 47.4347 132.828 48.9801C132.828 50.5256 133.027 51.8324 133.425 52.9006C133.834 53.9574 134.402 54.7585 135.129 55.304C135.857 55.8381 136.703 56.1051 137.669 56.1051C138.442 56.1051 139.124 55.9404 139.714 55.6108C140.317 55.2813 140.811 54.7983 141.197 54.1619C141.584 53.5142 141.828 52.7301 141.93 51.8097H149.72C149.641 53.9688 149.101 55.8551 148.101 57.4688C147.112 59.0824 145.72 60.3381 143.925 61.2358C142.141 62.1222 140.021 62.5654 137.567 62.5654ZM161.503 55.2017L161.537 45.2642H162.696L170.06 35.8892H179.503L168.56 49.321H166.361L161.503 55.2017ZM153.986 62.071V27.1619H162.321V62.071H153.986ZM170.247 62.071L163.395 51.196L168.884 45.2813L179.878 62.071H170.247ZM182.486 62.071V27.1619H190.923V55.2188H205.446V62.071H182.486ZM223.514 35.8892V42.0256H206.997V35.8892H223.514ZM210.457 29.6165H218.793V53.8381C218.793 54.3494 218.872 54.7642 219.031 55.0824C219.202 55.3892 219.446 55.6108 219.764 55.7472C220.082 55.8722 220.463 55.9347 220.906 55.9347C221.224 55.9347 221.56 55.9063 221.912 55.8494C222.276 55.7813 222.548 55.7244 222.73 55.679L223.991 61.696C223.594 61.8097 223.031 61.9517 222.304 62.1222C221.588 62.2926 220.73 62.4006 219.73 62.446C217.776 62.5369 216.099 62.3097 214.702 61.7642C213.315 61.2074 212.253 60.3438 211.514 59.1733C210.787 58.0029 210.435 56.5313 210.457 54.7585V29.6165Z"/>
</mask>
<path d="M80.392 62.071V27.1619H94.8125C97.4261 27.1619 99.6818 27.6733 101.58 28.696C103.489 29.7074 104.96 31.1222 105.994 32.9404C107.028 34.7472 107.545 36.8494 107.545 39.2472C107.545 41.6563 107.017 43.7642 105.96 45.571C104.915 47.3665 103.42 48.7585 101.477 49.7472C99.5341 50.7358 97.2273 51.2301 94.5568 51.2301H85.6591V44.5824H92.9886C94.2614 44.5824 95.3239 44.3608 96.1761 43.9176C97.0398 43.4744 97.6932 42.8551 98.1364 42.0597C98.5795 41.2529 98.8011 40.3154 98.8011 39.2472C98.8011 38.1676 98.5795 37.2358 98.1364 36.4517C97.6932 35.6563 97.0398 35.0426 96.1761 34.6108C95.3125 34.179 94.25 33.9631 92.9886 33.9631H88.8295V62.071H80.392ZM111.705 62.071V35.8892H120.04V62.071H111.705ZM115.881 32.8381C114.71 32.8381 113.705 32.4517 112.864 31.679C112.023 30.8949 111.602 29.9517 111.602 28.8494C111.602 27.7585 112.023 26.8267 112.864 26.054C113.705 25.2699 114.71 24.8779 115.881 24.8779C117.063 24.8779 118.068 25.2699 118.898 26.054C119.739 26.8267 120.159 27.7585 120.159 28.8494C120.159 29.9517 119.739 30.8949 118.898 31.679C118.068 32.4517 117.063 32.8381 115.881 32.8381ZM137.567 62.5654C134.805 62.5654 132.436 61.9972 130.459 60.8608C128.493 59.7244 126.982 58.1449 125.925 56.1222C124.868 54.0881 124.339 51.7358 124.339 49.0654C124.339 46.3835 124.868 44.0313 125.925 42.0085C126.993 39.9744 128.51 38.3892 130.476 37.2529C132.453 36.1165 134.811 35.5483 137.55 35.5483C139.97 35.5483 142.078 35.9858 143.874 36.8608C145.68 37.7358 147.089 38.9744 148.101 40.5767C149.124 42.1676 149.663 44.0369 149.72 46.1847H141.93C141.771 44.8438 141.317 43.7926 140.567 43.0313C139.828 42.2699 138.862 41.8892 137.669 41.8892C136.703 41.8892 135.857 42.1619 135.129 42.7074C134.402 43.2415 133.834 44.0369 133.425 45.0938C133.027 46.1392 132.828 47.4347 132.828 48.9801C132.828 50.5256 133.027 51.8324 133.425 52.9006C133.834 53.9574 134.402 54.7585 135.129 55.304C135.857 55.8381 136.703 56.1051 137.669 56.1051C138.442 56.1051 139.124 55.9404 139.714 55.6108C140.317 55.2813 140.811 54.7983 141.197 54.1619C141.584 53.5142 141.828 52.7301 141.93 51.8097H149.72C149.641 53.9688 149.101 55.8551 148.101 57.4688C147.112 59.0824 145.72 60.3381 143.925 61.2358C142.141 62.1222 140.021 62.5654 137.567 62.5654ZM161.503 55.2017L161.537 45.2642H162.696L170.06 35.8892H179.503L168.56 49.321H166.361L161.503 55.2017ZM153.986 62.071V27.1619H162.321V62.071H153.986ZM170.247 62.071L163.395 51.196L168.884 45.2813L179.878 62.071H170.247ZM182.486 62.071V27.1619H190.923V55.2188H205.446V62.071H182.486ZM223.514 35.8892V42.0256H206.997V35.8892H223.514ZM210.457 29.6165H218.793V53.8381C218.793 54.3494 218.872 54.7642 219.031 55.0824C219.202 55.3892 219.446 55.6108 219.764 55.7472C220.082 55.8722 220.463 55.9347 220.906 55.9347C221.224 55.9347 221.56 55.9063 221.912 55.8494C222.276 55.7813 222.548 55.7244 222.73 55.679L223.991 61.696C223.594 61.8097 223.031 61.9517 222.304 62.1222C221.588 62.2926 220.73 62.4006 219.73 62.446C217.776 62.5369 216.099 62.3097 214.702 61.7642C213.315 61.2074 212.253 60.3438 211.514 59.1733C210.787 58.0029 210.435 56.5313 210.457 54.7585V29.6165Z" fill="#04386B"/>
<path d="M80.392 62.071H79.392V63.071H80.392V62.071ZM80.392 27.1619V26.1619H79.392V27.1619H80.392ZM101.58 28.696L101.105 29.5764L101.111 29.5797L101.58 28.696ZM105.994 32.9404L105.125 33.4347L105.126 33.4371L105.994 32.9404ZM105.96 45.571L105.097 45.0662L105.096 45.0678L105.96 45.571ZM101.477 49.7472L101.931 50.6385L101.931 50.6385L101.477 49.7472ZM85.6591 51.2301H84.6591V52.2301H85.6591V51.2301ZM85.6591 44.5824V43.5824H84.6591V44.5824H85.6591ZM96.1761 43.9176L95.7196 43.0279L95.7148 43.0304L96.1761 43.9176ZM98.1364 42.0597L99.0099 42.5464L99.0128 42.5411L98.1364 42.0597ZM98.1364 36.4517L97.2628 36.9384L97.2658 36.9438L98.1364 36.4517ZM96.1761 34.6108L95.7289 35.5052L95.7289 35.5052L96.1761 34.6108ZM88.8295 33.9631V32.9631H87.8295V33.9631H88.8295ZM88.8295 62.071V63.071H89.8295V62.071H88.8295ZM80.392 62.071H81.392V27.1619H80.392H79.392V62.071H80.392ZM80.392 27.1619V28.1619H94.8125V27.1619V26.1619H80.392V27.1619ZM94.8125 27.1619V28.1619C97.2954 28.1619 99.3811 28.6472 101.105 29.5763L101.58 28.696L102.054 27.8157C99.9825 26.6994 97.5569 26.1619 94.8125 26.1619V27.1619ZM101.58 28.696L101.111 29.5797C102.858 30.5051 104.188 31.7874 105.125 33.4347L105.994 32.9404L106.864 32.446C105.732 30.4569 104.119 28.9096 102.048 27.8124L101.58 28.696ZM105.994 32.9404L105.126 33.4371C106.062 35.071 106.545 36.9969 106.545 39.2472H107.545H108.545C108.545 36.702 107.995 34.4233 106.862 32.4436L105.994 32.9404ZM107.545 39.2472H106.545C106.545 41.506 106.051 43.4344 105.097 45.0662L105.96 45.571L106.823 46.0759C107.983 44.0941 108.545 41.8065 108.545 39.2472H107.545ZM105.96 45.571L105.096 45.0678C104.152 46.6887 102.805 47.9499 101.024 48.8559L101.477 49.7472L101.931 50.6385C104.036 49.5672 105.677 48.0443 106.824 46.0742L105.96 45.571ZM101.477 49.7472L101.024 48.8559C99.2492 49.7588 97.1046 50.2301 94.5568 50.2301V51.2301V52.2301C97.35 52.2301 99.819 51.7129 101.931 50.6385L101.477 49.7472ZM94.5568 51.2301V50.2301H85.6591V51.2301V52.2301H94.5568V51.2301ZM85.6591 51.2301H86.6591V44.5824H85.6591H84.6591V51.2301H85.6591ZM85.6591 44.5824V45.5824H92.9886V44.5824V43.5824H85.6591V44.5824ZM92.9886 44.5824V45.5824C94.3718 45.5824 95.604 45.3422 96.6375 44.8048L96.1761 43.9176L95.7148 43.0304C95.0437 43.3794 94.1509 43.5824 92.9886 43.5824V44.5824ZM96.1761 43.9176L96.6327 44.8073C97.6599 44.2802 98.4641 43.526 99.0099 42.5464L98.1364 42.0597L97.2628 41.573C96.9222 42.1843 96.4197 42.6687 95.7196 43.0279L96.1761 43.9176ZM98.1364 42.0597L99.0128 42.5411C99.5492 41.5646 99.8011 40.4565 99.8011 39.2472H98.8011H97.8011C97.8011 40.1742 97.6099 40.9411 97.2599 41.5782L98.1364 42.0597ZM98.8011 39.2472H99.8011C99.8011 38.0294 99.5503 36.9211 99.0069 35.9597L98.1364 36.4517L97.2658 36.9438C97.6087 37.5505 97.8011 38.3058 97.8011 39.2472H98.8011ZM98.1364 36.4517L99.0099 35.965C98.4628 34.983 97.6554 34.2324 96.6233 33.7164L96.1761 34.6108L95.7289 35.5052C96.4241 35.8528 96.9236 36.3295 97.2628 36.9384L98.1364 36.4517ZM96.1761 34.6108L96.6234 33.7164C95.585 33.1972 94.3595 32.9631 92.9886 32.9631V33.9631V34.9631C94.1405 34.9631 95.04 35.1608 95.7289 35.5052L96.1761 34.6108ZM92.9886 33.9631V32.9631H88.8295V33.9631V34.9631H92.9886V33.9631ZM88.8295 33.9631H87.8295V62.071H88.8295H89.8295V33.9631H88.8295ZM88.8295 62.071V61.071H80.392V62.071V63.071H88.8295V62.071ZM111.705 62.071H110.705V63.071H111.705V62.071ZM111.705 35.8892V34.8892H110.705V35.8892H111.705ZM120.04 35.8892H121.04V34.8892H120.04V35.8892ZM120.04 62.071V63.071H121.04V62.071H120.04ZM112.864 31.679L112.182 32.4104L112.187 32.4153L112.864 31.679ZM112.864 26.054L113.54 26.7903L113.546 26.7854L112.864 26.054ZM118.898 26.054L118.211 26.7808L118.221 26.7903L118.898 26.054ZM118.898 31.679L119.579 32.4107L119.58 32.4104L118.898 31.679ZM111.705 62.071H112.705V35.8892H111.705H110.705V62.071H111.705ZM111.705 35.8892V36.8892H120.04V35.8892V34.8892H111.705V35.8892ZM120.04 35.8892H119.04V62.071H120.04H121.04V35.8892H120.04ZM120.04 62.071V61.071H111.705V62.071V63.071H120.04V62.071ZM115.881 32.8381V31.8381C114.954 31.8381 114.192 31.5412 113.54 30.9427L112.864 31.679L112.187 32.4153C113.217 33.3622 114.467 33.8381 115.881 33.8381V32.8381ZM112.864 31.679L113.546 30.9476C112.898 30.3435 112.602 29.6612 112.602 28.8494H111.602H110.602C110.602 30.2423 111.148 31.4463 112.182 32.4104L112.864 31.679ZM111.602 28.8494H112.602C112.602 28.0529 112.895 27.3837 113.54 26.7903L112.864 26.054L112.187 25.3177C111.151 26.2697 110.602 27.4642 110.602 28.8494H111.602ZM112.864 26.054L113.546 26.7854C114.198 26.1773 114.958 25.8779 115.881 25.8779V24.8779V23.8779C114.462 23.8779 113.211 24.3625 112.182 25.3226L112.864 26.054ZM115.881 24.8779V25.8779C116.817 25.8779 117.574 26.1789 118.211 26.7807L118.898 26.054L119.585 25.3273C118.562 24.3609 117.308 23.8779 115.881 23.8779V24.8779ZM118.898 26.054L118.221 26.7903C118.867 27.3837 119.159 28.0529 119.159 28.8494H120.159H121.159C121.159 27.4642 120.61 26.2697 119.574 25.3177L118.898 26.054ZM120.159 28.8494H119.159C119.159 29.6612 118.864 30.3435 118.216 30.9476L118.898 31.679L119.58 32.4104C120.614 31.4463 121.159 30.2423 121.159 28.8494H120.159ZM118.898 31.679L118.216 30.9473C117.58 31.5397 116.821 31.8381 115.881 31.8381V32.8381V33.8381C117.304 33.8381 118.556 33.3638 119.579 32.4107L118.898 31.679ZM130.459 60.8608L129.958 61.7266L129.961 61.7278L130.459 60.8608ZM125.925 56.1222L125.037 56.5832L125.038 56.5852L125.925 56.1222ZM125.925 42.0085L125.039 41.5436L125.038 41.5455L125.925 42.0085ZM130.476 37.2529L129.978 36.3858L129.975 36.3871L130.476 37.2529ZM143.874 36.8608L143.435 37.7597L143.438 37.7608L143.874 36.8608ZM148.101 40.5767L147.255 41.1105L147.26 41.1175L148.101 40.5767ZM149.72 46.1847V47.1847H150.747L150.72 46.1582L149.72 46.1847ZM141.93 46.1847L140.937 46.3025L141.042 47.1847H141.93V46.1847ZM140.567 43.0313L139.849 43.7276L139.854 43.733L140.567 43.0313ZM135.129 42.7074L135.721 43.5134L135.729 43.5074L135.129 42.7074ZM133.425 45.0938L132.492 44.7328L132.49 44.7382L133.425 45.0938ZM133.425 52.9006L132.487 53.2495L132.492 53.2616L133.425 52.9006ZM135.129 55.304L134.529 56.104L134.537 56.11L135.129 55.304ZM139.714 55.6108L139.234 54.7335L139.227 54.7374L139.714 55.6108ZM141.197 54.1619L142.052 54.6809L142.056 54.6742L141.197 54.1619ZM141.93 51.8097V50.8097H141.035L140.937 51.6992L141.93 51.8097ZM149.72 51.8097L150.719 51.8465L150.758 50.8097H149.72V51.8097ZM148.101 57.4688L147.251 56.942L147.248 56.9463L148.101 57.4688ZM143.925 61.2358L144.37 62.1314L144.372 62.1302L143.925 61.2358ZM137.567 62.5654V61.5654C134.943 61.5654 132.754 61.0264 130.957 59.9938L130.459 60.8608L129.961 61.7278C132.118 62.968 134.667 63.5654 137.567 63.5654V62.5654ZM130.459 60.8608L130.959 59.995C129.158 58.9541 127.78 57.5146 126.811 55.6591L125.925 56.1222L125.038 56.5852C126.183 58.7752 127.827 60.4948 129.958 61.7266L130.459 60.8608ZM125.925 56.1222L126.812 55.6611C125.841 53.7913 125.339 51.6018 125.339 49.0654H124.339H123.339C123.339 51.8698 123.895 54.3849 125.037 56.5832L125.925 56.1222ZM124.339 49.0654H125.339C125.339 46.5166 125.841 44.3283 126.811 42.4716L125.925 42.0085L125.038 41.5455C123.895 43.7342 123.339 46.2505 123.339 49.0654H124.339ZM125.925 42.0085L126.81 42.4735C127.791 40.6046 129.176 39.1592 130.976 38.1186L130.476 37.2529L129.975 36.3871C127.844 37.6192 126.194 39.3443 125.039 41.5436L125.925 42.0085ZM130.476 37.2529L130.974 38.1199C132.772 37.0866 134.951 36.5483 137.55 36.5483V35.5483V34.5483C134.671 34.5483 132.134 35.1464 129.978 36.3858L130.476 37.2529ZM137.55 35.5483V36.5483C139.85 36.5483 141.802 36.9639 143.435 37.7597L143.874 36.8608L144.312 35.9619C142.354 35.0078 140.09 34.5483 137.55 34.5483V35.5483ZM143.874 36.8608L143.438 37.7608C145.087 38.5595 146.35 39.6757 147.255 41.1105L148.101 40.5767L148.946 40.043C147.829 38.2732 146.274 36.9121 144.309 35.9608L143.874 36.8608ZM148.101 40.5767L147.26 41.1175C148.171 42.5346 148.668 44.2207 148.721 46.2111L149.72 46.1847L150.72 46.1582C150.659 43.8532 150.076 41.8007 148.942 40.036L148.101 40.5767ZM149.72 46.1847V45.1847H141.93V46.1847V47.1847H149.72V46.1847ZM141.93 46.1847L142.923 46.0669C142.745 44.5645 142.222 43.2866 141.279 42.3295L140.567 43.0313L139.854 43.733C140.412 44.2986 140.797 45.123 140.937 46.3025L141.93 46.1847ZM140.567 43.0313L141.284 42.335C140.333 41.3544 139.096 40.8892 137.669 40.8892V41.8892V42.8892C138.629 42.8892 139.323 43.1854 139.849 43.7276L140.567 43.0313ZM137.669 41.8892V40.8892C136.501 40.8892 135.441 41.2237 134.529 41.9074L135.129 42.7074L135.729 43.5074C136.272 43.1002 136.905 42.8892 137.669 42.8892V41.8892ZM135.129 42.7074L134.537 41.9014C133.621 42.574 132.953 43.5435 132.492 44.7328L133.425 45.0938L134.357 45.4548C134.715 44.5304 135.182 43.909 135.721 43.5134L135.129 42.7074ZM133.425 45.0938L132.49 44.7382C132.036 45.9315 131.828 47.3563 131.828 48.9801H132.828H133.828C133.828 47.5131 134.018 46.3469 134.359 45.4493L133.425 45.0938ZM132.828 48.9801H131.828C131.828 50.6051 132.036 52.0378 132.488 53.2495L133.425 52.9006L134.362 52.5516C134.018 51.627 133.828 50.4461 133.828 48.9801H132.828ZM133.425 52.9006L132.492 53.2616C132.952 54.4501 133.619 55.4215 134.529 56.104L135.129 55.304L135.729 54.504C135.185 54.0956 134.715 53.4647 134.357 52.5396L133.425 52.9006ZM135.129 55.304L134.537 56.11C135.449 56.7792 136.506 57.1051 137.669 57.1051V56.1051V55.1051C136.9 55.1051 136.264 54.8969 135.721 54.498L135.129 55.304ZM137.669 56.1051V57.1051C138.588 57.1051 139.442 56.9079 140.202 56.4842L139.714 55.6108L139.227 54.7374C138.805 54.9728 138.296 55.1051 137.669 55.1051V56.1051ZM139.714 55.6108L140.194 56.4881C140.964 56.0671 141.583 55.4545 142.052 54.6809L141.197 54.1619L140.343 53.643C140.04 54.1421 139.67 54.4955 139.234 54.7335L139.714 55.6108ZM141.197 54.1619L142.056 54.6742C142.531 53.8791 142.81 52.951 142.924 51.9201L141.93 51.8097L140.937 51.6992C140.847 52.5093 140.637 53.1494 140.339 53.6497L141.197 54.1619ZM141.93 51.8097V52.8097H149.72V51.8097V50.8097H141.93V51.8097ZM149.72 51.8097L148.721 51.7729C148.647 53.7828 148.147 55.4954 147.251 56.942L148.101 57.4688L148.951 57.9955C150.054 56.2149 150.634 54.1547 150.719 51.8465L149.72 51.8097ZM148.101 57.4688L147.248 56.9463C146.363 58.3907 145.116 59.522 143.478 60.3414L143.925 61.2358L144.372 62.1302C146.324 61.1542 147.861 59.7741 148.954 57.9912L148.101 57.4688ZM143.925 61.2358L143.48 60.3402C141.862 61.1438 139.902 61.5654 137.567 61.5654V62.5654V63.5654C140.141 63.5654 142.419 63.1005 144.37 62.1314L143.925 61.2358ZM161.503 55.2017L160.503 55.1983L160.493 57.994L162.274 55.8386L161.503 55.2017ZM161.537 45.2642V44.2642H160.54L160.537 45.2608L161.537 45.2642ZM162.696 45.2642V46.2642H163.182L163.482 45.8819L162.696 45.2642ZM170.06 35.8892V34.8892H169.574L169.273 35.2715L170.06 35.8892ZM179.503 35.8892L180.278 36.5208L181.607 34.8892H179.503V35.8892ZM168.56 49.321V50.321H169.035L169.335 49.9527L168.56 49.321ZM166.361 49.321V48.321H165.89L165.59 48.6842L166.361 49.321ZM153.986 62.071H152.986V63.071H153.986V62.071ZM153.986 27.1619V26.1619H152.986V27.1619H153.986ZM162.321 27.1619H163.321V26.1619H162.321V27.1619ZM162.321 62.071V63.071H163.321V62.071H162.321ZM170.247 62.071L169.401 62.6041L169.695 63.071H170.247V62.071ZM163.395 51.196L162.662 50.5158L162.139 51.0791L162.549 51.7291L163.395 51.196ZM168.884 45.2813L169.72 44.7334L169.02 43.6641L168.151 44.6011L168.884 45.2813ZM179.878 62.071V63.071H181.728L180.714 61.5232L179.878 62.071ZM161.503 55.2017L162.503 55.2051L162.537 45.2676L161.537 45.2642L160.537 45.2608L160.503 55.1983L161.503 55.2017ZM161.537 45.2642V46.2642H162.696V45.2642V44.2642H161.537V45.2642ZM162.696 45.2642L163.482 45.8819L170.846 36.5069L170.06 35.8892L169.273 35.2715L161.91 44.6465L162.696 45.2642ZM170.06 35.8892V36.8892H179.503V35.8892V34.8892H170.06V35.8892ZM179.503 35.8892L178.728 35.2576L167.784 48.6894L168.56 49.321L169.335 49.9527L180.278 36.5208L179.503 35.8892ZM168.56 49.321V48.321H166.361V49.321V50.321H168.56V49.321ZM166.361 49.321L165.59 48.6842L160.732 54.5648L161.503 55.2017L162.274 55.8386L167.132 49.9579L166.361 49.321ZM153.986 62.071H154.986V27.1619H153.986H152.986V62.071H153.986ZM153.986 27.1619V28.1619H162.321V27.1619V26.1619H153.986V27.1619ZM162.321 27.1619H161.321V62.071H162.321H163.321V27.1619H162.321ZM162.321 62.071V61.071H153.986V62.071V63.071H162.321V62.071ZM170.247 62.071L171.093 61.5379L164.241 50.6629L163.395 51.196L162.549 51.7291L169.401 62.6041L170.247 62.071ZM163.395 51.196L164.128 51.8762L169.617 45.9615L168.884 45.2813L168.151 44.6011L162.662 50.5158L163.395 51.196ZM168.884 45.2813L168.047 45.8291L179.041 62.6189L179.878 62.071L180.714 61.5232L169.72 44.7334L168.884 45.2813ZM179.878 62.071V61.071H170.247V62.071V63.071H179.878V62.071ZM182.486 62.071H181.486V63.071H182.486V62.071ZM182.486 27.1619V26.1619H181.486V27.1619H182.486ZM190.923 27.1619H191.923V26.1619H190.923V27.1619ZM190.923 55.2188H189.923V56.2188H190.923V55.2188ZM205.446 55.2188H206.446V54.2188H205.446V55.2188ZM205.446 62.071V63.071H206.446V62.071H205.446ZM182.486 62.071H183.486V27.1619H182.486H181.486V62.071H182.486ZM182.486 27.1619V28.1619H190.923V27.1619V26.1619H182.486V27.1619ZM190.923 27.1619H189.923V55.2188H190.923H191.923V27.1619H190.923ZM190.923 55.2188V56.2188H205.446V55.2188V54.2188H190.923V55.2188ZM205.446 55.2188H204.446V62.071H205.446H206.446V55.2188H205.446ZM205.446 62.071V61.071H182.486V62.071V63.071H205.446V62.071ZM223.514 35.8892H224.514V34.8892H223.514V35.8892ZM223.514 42.0256V43.0256H224.514V42.0256H223.514ZM206.997 42.0256H205.997V43.0256H206.997V42.0256ZM206.997 35.8892V34.8892H205.997V35.8892H206.997ZM210.457 29.6165V28.6165H209.457V29.6165H210.457ZM218.793 29.6165H219.793V28.6165H218.793V29.6165ZM219.031 55.0824L218.137 55.5296L218.147 55.549L218.157 55.568L219.031 55.0824ZM219.764 55.7472L219.37 56.6663L219.384 56.6723L219.399 56.6779L219.764 55.7472ZM221.912 55.8494L222.071 56.8367L222.084 56.8347L222.096 56.8323L221.912 55.8494ZM222.73 55.679L223.709 55.4738L223.496 54.4568L222.488 54.7088L222.73 55.679ZM223.991 61.696L224.266 62.6576L225.161 62.4019L224.97 61.4909L223.991 61.696ZM222.304 62.1222L222.076 61.1486L222.072 61.1494L222.304 62.1222ZM219.73 62.446L219.685 61.4471L219.684 61.4471L219.73 62.446ZM214.702 61.7642L214.329 62.6922L214.338 62.6958L214.702 61.7642ZM211.514 59.1733L210.665 59.7011L210.669 59.707L211.514 59.1733ZM210.457 54.7585L211.457 54.7714V54.7585H210.457ZM223.514 35.8892H222.514V42.0256H223.514H224.514V35.8892H223.514ZM223.514 42.0256V41.0256H206.997V42.0256V43.0256H223.514V42.0256ZM206.997 42.0256H207.997V35.8892H206.997H205.997V42.0256H206.997ZM206.997 35.8892V36.8892H223.514V35.8892V34.8892H206.997V35.8892ZM210.457 29.6165V30.6165H218.793V29.6165V28.6165H210.457V29.6165ZM218.793 29.6165H217.793V53.8381H218.793H219.793V29.6165H218.793ZM218.793 53.8381H217.793C217.793 54.4415 217.885 55.0254 218.137 55.5296L219.031 55.0824L219.926 54.6352C219.86 54.5031 219.793 54.2574 219.793 53.8381H218.793ZM219.031 55.0824L218.157 55.568C218.434 56.0657 218.845 56.4414 219.37 56.6663L219.764 55.7472L220.158 54.828C220.047 54.7803 219.97 54.7128 219.905 54.5968L219.031 55.0824ZM219.764 55.7472L219.399 56.6779C219.862 56.86 220.373 56.9347 220.906 56.9347V55.9347V54.9347C220.553 54.9347 220.303 54.8843 220.13 54.8164L219.764 55.7472ZM220.906 55.9347V56.9347C221.284 56.9347 221.672 56.901 222.071 56.8367L221.912 55.8494L221.753 54.8622C221.447 54.9115 221.165 54.9347 220.906 54.9347V55.9347ZM221.912 55.8494L222.096 56.8323C222.464 56.7633 222.761 56.7021 222.973 56.6491L222.73 55.679L222.488 54.7088C222.336 54.7468 222.087 54.7993 221.728 54.8666L221.912 55.8494ZM222.73 55.679L221.751 55.8842L223.013 61.9012L223.991 61.696L224.97 61.4909L223.709 55.4738L222.73 55.679ZM223.991 61.696L223.717 60.7345C223.342 60.8416 222.798 60.9794 222.076 61.1486L222.304 62.1222L222.532 63.0958C223.265 62.9241 223.845 62.7778 224.266 62.6576L223.991 61.696ZM222.304 62.1222L222.072 61.1494C221.435 61.3011 220.643 61.4035 219.685 61.4471L219.73 62.446L219.776 63.445C220.818 63.3976 221.741 63.2841 222.536 63.095L222.304 62.1222ZM219.73 62.446L219.684 61.4471C217.828 61.5334 216.299 61.3142 215.065 60.8326L214.702 61.7642L214.338 62.6958C215.9 63.3051 217.723 63.5405 219.777 63.445L219.73 62.446ZM214.702 61.7642L215.074 60.8363C213.867 60.3513 212.977 59.6178 212.36 58.6396L211.514 59.1733L210.669 59.707C211.528 61.0697 212.764 62.0635 214.329 62.6922L214.702 61.7642ZM211.514 59.1733L212.364 58.6455C211.762 57.6777 211.436 56.4072 211.457 54.7714L210.457 54.7585L209.457 54.7457C209.433 56.6553 209.812 58.328 210.665 59.7011L211.514 59.1733ZM210.457 54.7585H211.457V29.6165H210.457H209.457V54.7585H210.457Z" fill="#0C1E40" mask="url(#path-14-outside-2_31_46)"/>
</svg>
