<svg width="658" height="160" viewBox="0 0 658 160" fill="none" xmlns="http://www.w3.org/2000/svg">
<path d="M118.863 90.1813C120.47 88.2493 122.076 86.3172 124.238 84.0501C130.43 83.6143 128.387 87.8751 128.527 91.0108C128.428 94.1006 128.59 96.9273 128.767 100.014C128.8 100.448 128.818 100.621 128.933 101.184C130.027 101.969 131.02 102.696 132.02 102.706C140.588 102.796 149.158 102.792 157.726 102.708C158.768 102.698 159.804 102.049 161.133 101.461C160.704 98.7267 160.194 96.1407 159.198 93.7572C158.457 91.9817 156.991 90.5236 156.019 88.8262C154.126 85.5211 152.44 82.0957 150.508 78.8143C147.8 74.2136 143.197 75.9157 139.271 75.8143C136.17 75.7343 133.294 75.8111 131.961 72.3127C131.961 72.3127 132.089 72.0575 132.541 72.1491C133.375 71.2724 133.757 70.3041 134.138 69.3358C134.138 69.3358 134.242 69.2044 134.631 69.3096C136.566 67.1112 138.113 64.8075 139.66 62.5039C139.66 62.5039 139.684 62.6136 140.007 62.6327C145.282 59.631 149.793 58.8656 153.273 64.8649C153.788 65.7517 155.079 66.188 156.011 66.8327C156.011 66.8327 156.153 67.071 155.982 67.5057C157.911 72.0229 159.858 76.197 162.207 80.1316C162.907 81.3053 164.731 81.8084 166.04 82.6188C166.04 82.6188 165.944 82.6429 165.894 82.9824C167.55 85.775 169.256 88.2282 170.962 90.6814C170.962 90.6814 170.878 90.6855 170.872 91.0357C172.297 93.4239 173.729 95.4618 175.16 97.4997C175.16 97.4997 175.03 97.6051 174.981 97.8742C175.301 98.6621 175.67 99.1809 176.038 99.6997C176.038 99.6997 175.912 99.7021 175.863 100.082C175.502 107.542 175.182 114.622 174.881 121.702C174.664 126.802 174.402 131.901 174.291 137.004C174.201 141.117 172.265 142.759 168.139 142.832C163.439 142.916 163.895 139.325 162.708 136.585C161.913 134.75 160.165 133.328 158.843 131.721C157.361 129.787 155.878 127.853 154.256 125.532C155.797 121.729 151.425 120.276 150.882 120.186C145.634 119.325 140.195 118.438 134.968 119.004C130.648 119.472 125.445 120.186 123.904 125.879C123.904 125.879 123.89 125.797 123.56 125.805C122.138 127.515 121.045 129.219 119.952 130.922C119.952 130.922 119.921 130.81 119.676 130.922C119.243 131.633 119.054 132.232 118.866 132.831C118.866 132.831 118.837 132.768 118.502 132.787C116.646 135.96 115.126 139.114 113.365 142.767C101.424 142.767 88.9606 142.872 76.505 142.609C75.2339 142.582 73.8154 140.487 72.8075 139.103C71.1797 136.868 69.8364 134.425 68.373 132.07C68.373 132.07 68.626 132.079 68.5481 131.819C68.1864 131.328 67.9025 131.096 67.6187 130.864C67.6187 130.864 67.7147 130.844 67.754 130.498C67.2681 128.657 66.9958 127.001 66.1706 125.694C63.6258 121.665 59.6999 120.817 55.1055 120.169C45.9308 118.874 37.8905 120.373 31.109 126.83C30.4853 127.424 30.8362 129.042 30.7346 130.184C30.7346 130.184 30.5692 130.492 30.2053 130.414C29.8145 130.783 29.7876 131.23 29.7607 131.677C28.8653 133.793 27.9698 135.91 26.6482 138.442C24.0803 140.166 22.0543 142.28 19.772 142.607C15.5401 143.214 11.1586 142.778 6.83931 142.774C0.45322 142.767 3.60732 137.369 2.52887 134.503C2.29245 133.874 5.18616 131.115 6.82448 130.923C10.9073 130.443 15.2576 131.582 19.1863 130.689C21.6891 130.121 23.7719 127.21 25.7221 125.059C26.1948 124.537 25.4005 122.867 25.1888 121.725C25.1888 121.725 24.9869 121.855 24.6706 121.482C18.6771 120.671 13.0024 119.947 7.32151 119.895C3.46379 119.859 1.84906 118.499 1.85549 114.694C1.89595 90.7347 1.87322 66.7755 1.87539 42.8163C1.87566 39.8077 2.76246 37.6304 6.34905 37.5746C20.9551 37.3471 35.5601 36.9839 50.1661 36.9518C51.1693 36.9496 52.8823 39.1515 53.073 40.4973C54.7413 52.2666 59.1123 62.8426 66.1881 72.3745C68.1094 74.9626 69.2952 78.1764 71.4877 80.461C73.6693 82.7344 76.6921 84.2006 79.346 86.0207C79.346 86.0207 79.4579 86.1684 79.3081 86.5557C79.566 90.7025 80.0464 94.3972 85.3027 93.8325C85.3027 93.8325 85.5794 94.0147 85.416 94.4563C85.8986 100.45 88.8548 103.788 93.3203 104.006C93.3203 104.006 93.3981 104.145 93.3299 104.504C93.6116 104.942 93.9616 105.021 94.3116 105.1C94.3116 105.1 94.3316 105.209 94.2993 105.533C94.8372 106.128 95.4072 106.399 95.9773 106.67C95.9773 106.67 95.8915 106.685 95.9044 107.005C96.4669 107.894 96.9141 108.671 97.5821 109.002C104.589 112.467 115.485 103.499 115.436 94.344C115.436 94.344 115.523 94.7165 115.844 94.623C116.687 93.5424 117.208 92.5555 117.73 91.5686C117.73 91.5686 117.752 91.6852 117.952 91.6108C118.389 91.0848 118.626 90.6331 118.863 90.1813Z" fill="#02396C"/>
<path d="M288.859 40.7202C290.792 42.8383 292.725 44.9565 294.886 47.6109C295.318 48.4072 295.574 48.5961 295.883 48.7141C295.883 48.7141 295.838 48.7448 295.864 49.1023C297.176 52.8362 299.237 56.1313 299.601 59.6045C300.679 69.8623 300.209 80.0106 294.601 89.2614C293.769 90.6352 293.81 92.5391 293.447 94.1978C293.447 94.1978 293.346 94.1777 293.037 94.1632C292.684 94.4907 292.641 94.8328 292.597 95.1748C292.597 95.1748 292.487 95.3942 292.074 95.2521C290.63 95.525 289.363 95.6874 288.606 96.3951C282.434 102.164 275.048 105.257 266.764 105.945C259.835 106.521 252.859 106.6 245.9 106.717C238.282 106.845 237.869 107.149 237.861 114.547C237.855 120.373 237.857 126.199 237.86 132.024C237.868 147.387 239.245 145.581 223.771 145.777C219.302 145.834 217.703 144.261 217.724 139.636C217.886 105.347 217.891 71.0571 217.716 36.7687C217.692 32.0203 219.517 30.6935 223.862 30.7464C235.845 30.8924 247.842 30.5033 259.81 30.943C264.663 31.1214 269.456 32.9095 274.28 33.9442C277.148 34.5592 280.024 35.1335 282.897 35.7261C282.897 35.7261 282.85 35.7552 282.955 36.0413C283.782 36.5328 284.503 36.7382 285.225 36.9436C285.225 36.9436 285.44 37.0505 285.36 37.4559C286.473 38.8142 287.666 39.7672 288.859 40.7202ZM239.836 50.7432C239.836 50.7432 239.881 50.7927 239.177 50.8659C238.631 52.279 237.66 53.6802 237.62 55.1074C237.5 59.392 237.793 63.6863 237.833 67.9777C237.885 73.6022 237.668 79.2359 237.928 84.849C238.058 87.6745 238.071 91.3361 242.312 91.3224C248.494 91.3025 254.675 90.8825 261.621 90.568C267.707 89.3796 273.149 87.6306 276.722 81.6266C280.771 74.8241 279.821 67.6883 279.325 60.6148C279.169 58.3909 277.791 54.8829 273.246 55.6731C273.069 55.3665 272.892 55.0598 273.326 54.4696C273.645 53.7964 273.965 53.1232 274.285 52.4499C271.999 51.5314 269.774 50.0497 267.417 49.7977C259.738 48.9766 252.016 48.452 244.298 48.1966C242.858 48.149 241.36 49.8761 239.836 50.7432Z" fill="#04386B"/>
<path d="M486.893 143.773C480.242 136.017 473.592 128.261 466.841 119.808C466.343 118.4 466.115 117.454 465.516 117.019C463.166 115.309 460.698 113.76 458.274 112.152C457.451 115.017 456.08 117.852 455.917 120.754C455.563 127.059 455.93 133.4 455.796 139.722C455.721 143.228 454.332 145.862 450.164 145.748C448.334 145.698 446.502 145.742 444.671 145.738C437.241 145.72 436.853 145.329 436.852 137.727C436.849 106.435 436.765 75.1422 436.888 43.8505C436.945 29.6095 434.141 30.9621 450.298 30.6853C454.818 30.6079 455.95 32.3011 455.911 36.5316C455.737 55.3386 455.786 74.1485 455.928 92.956C455.939 94.5189 457.245 96.0722 457.95 97.6299C457.95 97.6299 457.941 97.6471 457.927 97.9092C458.017 98.4169 458.12 98.6624 458.223 98.9078C458.401 98.4881 458.578 98.0684 458.756 97.6488C458.756 97.6488 458.833 97.7403 459.145 97.6963C462.309 95.398 466.669 94.3199 465.974 89.2978C465.974 89.2978 466.115 89.0312 466.557 89.1833C471.002 86.6409 476.147 84.878 475.757 78.5996C475.757 78.5996 475.78 78.7009 475.998 78.6071C476.395 78.1913 476.574 77.8692 476.754 77.5471C476.754 77.5471 476.764 77.6601 477.07 77.6615C477.819 76.9535 478.262 76.2442 478.706 75.5349C478.706 75.5349 478.729 75.6346 479.073 75.6848C484.164 75.134 484.76 70.7526 486.771 67.6593C487.534 66.7564 488.296 65.8535 489.848 64.8521C495.589 64.7746 500.587 64.3972 505.477 64.9591C508.642 65.3228 511.65 67.06 514.729 68.1817C514.729 68.1817 514.532 68.4893 514.141 68.3573C513.666 68.3173 513.496 68.4318 513.513 68.497C513.562 68.6833 513.687 68.8496 513.783 69.0237C513.783 69.0237 513.615 69.4876 513.186 69.3692C512.673 69.3404 512.506 69.4548 512.523 69.5147C512.576 69.6932 512.701 69.8503 512.798 70.0158C512.741 70.1779 512.684 70.3401 512.193 70.3784C511.677 70.345 511.51 70.4662 511.529 70.5199C511.591 70.6919 511.723 70.839 511.827 70.9956C511.827 70.9956 511.702 71.4408 511.202 71.3156C509.149 72.7544 507.597 74.3182 506.044 75.8821C503.446 78.8553 500.914 81.8897 498.236 84.7887C492.849 90.6201 487.381 96.3777 481.5 102.526C479.47 106.783 482.495 108.061 484.916 109.683C484.916 109.683 484.844 109.742 484.864 110.076C486.242 113.818 487.23 117.59 491.996 117.65C491.996 117.65 491.909 117.666 491.878 117.998C493.899 121.919 494.761 126.687 500.278 126.848C500.278 126.848 500.583 127.008 500.425 127.486C500.767 129.66 500.85 131.672 501.847 132.992C504.668 136.726 507.865 140.176 510.804 144.133C510.033 144.92 509.343 145.693 508.715 145.646C501.436 145.093 494.166 144.417 486.893 143.773Z" fill="#04386B"/>
<path d="M114.057 82.1312C113.514 82.6562 112.97 83.1811 112.172 83.9593C111.916 84.2124 111.886 84.1522 111.886 84.1522C111.643 84.5093 111.4 84.8664 110.692 85.7258C110.092 86.4083 109.968 86.5967 109.856 86.7931C109.749 87.0657 109.642 87.3382 108.994 88.0514C105.823 90.8552 103.193 93.2183 100.237 95.8738C96.1779 90.3907 92.2556 85.1639 88.4096 79.8815C82.9771 72.4199 76.9996 65.2711 72.3385 57.351C64.9592 44.812 62.7766 31.6763 71.3068 18.4441C72.94 15.9105 74.1282 13.0901 75.5217 10.402C75.5217 10.402 75.7874 10.6099 76.0587 10.6167C77.8451 10.2299 79.7791 10.3004 80.8102 9.3702C90.1187 0.971976 100.678 -0.28831 112.043 3.8705C120.27 6.88119 126.573 11.8892 131.083 19.9979C135.152 27.3141 135.735 34.5505 135.109 42.3089C134.326 52.0138 128.841 59.5117 123.221 66.915C119.621 71.658 115.014 75.7958 114.057 82.1312ZM110.506 50.6031C116.608 47.538 118.299 41.7287 117.54 35.967C116.849 30.7233 116.745 24.6844 109.792 21.8608C102.338 18.8342 95.455 18.6287 89.1961 23.3488C83.12 27.9311 83.0597 34.8634 84.4083 41.7153C85.0277 44.8622 86.1099 47.918 86.8622 50.589C88.8922 51.3942 90.6449 52.3318 92.5139 52.7505C93.8938 53.0595 95.4253 52.6917 97.6362 52.8223C101.696 52.0848 105.756 51.3473 110.506 50.6031Z" fill="#0591A6"/>
<path d="M374.898 86.7709C373.939 87.8901 372.98 89.0093 371.539 90.431C370.736 90.7987 370.273 90.7495 370.115 90.9456C364.517 97.9237 364.825 113.522 370.158 120.447C370.787 121.262 372.249 121.436 373.325 121.907C373.325 121.907 373.529 122.067 373.379 122.505C373.823 126.903 376.69 127.591 379.998 127.644C379.998 127.644 379.91 127.672 379.894 128.032C380.227 129.089 380.43 130.25 380.947 130.412C386.836 132.256 392.691 131.85 398.299 129.385C399.386 128.907 399.967 127.281 400.782 126.185C401.131 125.791 401.48 125.398 402.367 124.784C405.127 123.48 407.349 122.397 409.826 121.189C412.543 122.215 415.768 123.415 418.979 124.65C424.389 126.73 424.686 127.709 421.772 132.437C420.937 133.792 420.528 135.409 419.923 136.905C419.923 136.905 419.907 136.814 419.583 136.805C417.516 137.719 415.6 138.416 414.058 139.6C403.548 147.672 392.195 151.354 379.048 146.978C378.122 146.669 376.819 147.489 375.692 147.785C373.841 147.373 371.991 146.961 369.985 145.836C367.455 144.019 365.08 142.916 362.705 141.812C362.705 141.812 362.785 141.782 362.816 141.457C362.405 140.302 362.071 139.39 361.505 138.656C357.612 133.605 352.669 129.071 349.977 123.454C345.793 114.72 344.85 105.011 347.583 95.518C348.709 91.6079 351.43 88.1728 353.223 84.4251C353.546 83.7514 352.883 82.6064 352.676 81.679C353.448 80.4527 354.221 79.2264 355.699 77.8521C359.186 74.6705 361.967 71.637 364.749 68.6034C364.749 68.6034 364.777 68.6982 365.164 68.7055C367.598 68.2893 369.805 68.2225 371.664 67.3838C382.785 62.3676 393.693 61.7479 404.727 67.8035C406.822 68.9534 409.707 68.6647 412.227 69.0397C412.227 69.0397 412.358 69.1265 412.3 69.5038C415.016 73.3329 417.03 77.7227 422.334 78.0452C422.334 78.0452 422.43 78.1867 422.285 78.6099C424.592 83.8375 423.23 87.1233 418.26 89.1227C417.666 89.3615 417.376 90.3536 416.944 90.9966C416.944 90.9966 416.926 90.8679 416.58 90.8169C415.413 90.8131 414.392 90.5616 413.801 90.9555C409.688 93.6982 407.109 92.2054 404.375 88.5498C401.74 85.0274 398.096 82.7528 393.448 81.6638C387.961 80.378 383.173 82.1877 378.045 83.0075C375.137 83.4726 374.891 84.6316 374.898 86.7709Z" fill="#04386B"/>
<path d="M636.979 83.1826C636.979 83.1826 637.057 83.5052 636.622 83.7691C635.831 84.5712 635.157 85.1153 635.167 85.6465C635.315 93.496 635.587 101.343 635.758 109.192C635.852 113.496 635.468 117.843 635.962 122.093C636.251 124.581 635.472 128.612 640.264 128.314C640.123 128.454 639.982 128.593 639.948 128.889C642.228 131.726 644.512 133.817 648.51 132.95C650.682 132.479 653.412 132.282 655.246 133.22C656.985 134.11 656.322 143.862 654.953 145.173C650.697 149.249 634.544 149.951 630.619 145.564C628.583 143.288 626.912 143.558 624.7 143.822C624.7 143.822 624.795 143.792 624.706 143.569C624.291 143.169 623.965 142.991 623.638 142.814C623.638 142.814 623.784 142.797 623.697 142.588C623.284 142.194 622.957 142.009 622.63 141.824C622.63 141.824 622.752 141.811 622.788 141.493C621.101 138.716 619.377 136.257 617.653 133.798C617.653 133.798 617.771 133.797 617.796 133.407C617.175 121.94 616.191 110.869 615.966 99.7837C615.646 83.9606 615.805 68.1257 615.906 52.2968C615.991 39.0728 613.863 40.9376 627.65 40.8184C633.83 40.765 635.515 42.405 635.741 48.7558C635.884 52.7497 636.025 56.7738 635.702 60.7466C635.312 65.5373 637.578 66.9212 641.893 66.7727C646.663 66.6085 651.442 66.7352 656.465 66.7352C656.599 68.8588 656.757 70.3164 656.772 71.7755C656.873 81.7304 656.861 81.6108 646.772 81.7763C643.501 81.8299 640.243 82.6909 636.979 83.1826Z" fill="#04386B"/>
<path d="M457.928 97.2747C457.245 96.0722 455.939 94.519 455.928 92.956C455.786 74.1485 455.737 55.3386 455.911 36.5316C455.95 32.3011 454.818 30.6079 450.298 30.6853C434.141 30.9621 436.945 29.6095 436.888 43.8505C436.765 75.1422 436.849 106.435 436.852 137.727C436.853 145.329 437.241 145.72 444.671 145.738C446.502 145.742 448.334 145.698 450.164 145.748C454.332 145.862 455.721 143.228 455.796 139.722C455.93 133.4 455.563 127.059 455.917 120.754C456.08 117.852 457.451 115.017 458.274 112.152C460.698 113.76 463.166 115.309 465.516 117.019C466.115 117.454 466.343 118.4 466.758 119.466C464.168 117.759 461.561 115.696 458.391 113.188C458.391 124.788 458.391 135.987 458.391 147.43C450.419 147.43 443.027 147.43 435.361 147.43C435.361 108.197 435.361 69.1489 435.361 29.876C442.739 29.876 450.021 29.876 457.907 29.876C457.907 52.1223 457.907 74.5209 457.928 97.2747Z" fill="#1F314F"/>
<path d="M57.8974 132.661C59.567 134.668 61.2365 136.675 62.8829 139.404C62.2217 145.961 63.3328 152.231 55.9878 155.487C50.3294 157.995 45.7216 158.745 42.3643 155.791C35.8383 150.049 34.4381 145.213 37.2068 138.814C37.7957 137.453 37.7244 135.807 37.9572 134.292C37.9572 134.292 38.1076 134.034 38.5964 134.203C40.1708 134.258 41.8014 134.561 42.2561 133.966C45.9949 129.072 50.0522 129.881 54.5527 132.719C55.3417 133.216 56.7663 132.706 57.8974 132.661Z" fill="#02396C"/>
<path d="M144.803 130.713C146.087 131.446 147.37 132.178 148.776 133.591C151.506 138.349 153.584 142.493 151.802 147.589C151.219 149.254 151.203 151.117 150.927 152.889C150.927 152.889 150.895 152.797 150.562 152.761C149.073 153.271 147.768 153.627 146.786 154.395C141.887 158.231 137.736 158.516 132.952 155.179C124.518 149.294 123.857 146.963 127.534 136.937C127.907 135.919 127.651 134.669 127.686 133.527C127.686 133.527 127.711 133.625 128.064 133.671C133.879 132.716 139.341 131.715 144.803 130.713Z" fill="#04386B"/>
<path d="M282.644 35.4802C280.024 35.1335 277.148 34.5592 274.28 33.9442C269.456 32.9095 264.663 31.1214 259.81 30.943C247.842 30.5033 235.845 30.8924 223.862 30.7465C219.517 30.6935 217.692 32.0203 217.716 36.7687C217.891 71.0571 217.886 105.347 217.724 139.636C217.703 144.261 219.302 145.834 223.771 145.777C239.245 145.581 237.868 147.387 237.86 132.025C237.857 126.199 237.855 120.373 237.861 114.547C237.869 107.149 238.282 106.845 245.9 106.717C252.859 106.6 259.835 106.521 266.764 105.945C275.048 105.257 282.434 102.164 288.606 96.3951C289.363 95.6874 290.63 95.5251 291.984 95.3361C283.915 104.7 273.013 108.067 261.11 108.704C254.184 109.075 247.221 108.772 239.978 108.772C239.978 121.801 239.978 134.396 239.978 147.328C231.954 147.328 224.222 147.328 216.136 147.328C216.136 108.351 216.136 69.1952 216.136 28.701C235.212 29.682 254.206 30.5174 273.171 31.7744C276.307 31.9822 279.321 34.0344 282.644 35.4802Z" fill="#0C1E40"/>
<path d="M79.178 85.7476C76.6921 84.2006 73.6693 82.7344 71.4877 80.461C69.2952 78.1764 68.1094 74.9626 66.1881 72.3745C59.1123 62.8426 54.7413 52.2666 53.073 40.4973C52.8822 39.1515 51.1693 36.9496 50.1661 36.9518C35.5601 36.9838 20.9551 37.3471 6.34905 37.5745C2.76245 37.6304 1.87566 39.8077 1.87538 42.8163C1.87322 66.7755 1.89595 90.7347 1.85548 114.694C1.84906 118.499 3.46379 119.859 7.3215 119.895C13.0024 119.947 18.677 120.671 24.5897 121.393C16.8621 121.678 8.89925 121.678 0.623368 121.678C0.547501 121.312 0.312272 120.706 0.312684 120.101C0.329514 95.4593 0.325425 70.8171 0.423035 46.1754C0.463776 35.889 1.73029 34.7469 11.8794 34.7584C26.0261 34.7743 40.1729 34.7624 54.3454 34.7624C55.4412 40.3114 56.2805 45.7991 57.6333 51.1572C60.5201 62.5917 68.2865 71.2013 75.0538 80.3679C76.3324 82.0997 77.6893 83.7738 79.178 85.7476Z" fill="#0C1E40"/>
<path d="M334.768 97.7427C334.769 114.531 334.769 130.82 334.769 147.412C327.392 147.412 320.308 147.412 312.889 147.412C312.889 120.047 312.889 92.5028 312.889 64.832C320.038 64.832 327.157 64.832 334.768 64.832C334.768 75.7241 334.768 86.4834 334.768 97.7427ZM313.878 120.243C313.879 126.742 313.805 133.243 313.911 139.741C313.974 143.618 315.675 146.061 320.03 145.754C321.688 145.637 323.362 145.736 325.028 145.735C332.51 145.733 332.798 145.472 332.805 137.838C332.824 118.339 332.791 98.8399 332.82 79.3408C332.842 64.2194 333.523 66.926 320.388 66.7291C314.288 66.6376 313.889 67.0866 313.88 73.2446C313.857 88.5772 313.876 103.91 313.878 120.243Z" fill="#0C1E40"/>
<path d="M327.937 29.6855C328.242 29.8484 328.548 30.0113 329.409 30.3894C330.278 30.5756 330.579 30.6185 330.866 30.7333C330.866 30.7333 330.844 30.7502 330.954 30.9805C331.379 31.3671 331.694 31.5233 332.009 31.6796C332.009 31.6796 331.906 31.6873 331.874 32.0297C334.342 37.832 336.748 43.2841 332.003 48.8407C331.839 49.0331 332.28 49.742 332.439 50.2102C332.439 50.2102 332.33 50.243 331.955 50.1261C330.865 50.7729 330.15 51.5366 329.435 52.3003C329.435 52.3003 329.247 52.3329 328.717 52.1045C323.933 51.6747 319.681 51.4734 315.428 51.272C315.428 51.272 315.374 51.2012 315.477 50.8465C315.41 49.8827 315.387 49.172 315.047 48.6799C310.688 42.3591 310.677 40.3798 314.712 34.2172C315.368 33.2145 315.426 31.8199 315.761 30.6064C315.761 30.6064 315.785 30.6927 316.191 30.7212C320.377 30.395 324.157 30.0402 327.937 29.6855Z" fill="#04386B"/>
<path d="M114.358 81.98C115.014 75.7958 119.621 71.658 123.221 66.915C128.841 59.5117 134.326 52.0138 135.109 42.3089C135.735 34.5505 135.152 27.3141 131.083 19.9979C126.573 11.8892 120.27 6.88119 112.043 3.87051C100.678 -0.288303 90.1187 0.971983 80.8102 9.37021C79.7791 10.3004 77.8451 10.2299 75.9133 10.5312C85.6786 0.134397 102.195 -2.93872 115.504 2.99493C129.593 9.2767 137.998 23.4379 137.228 39.0448C136.613 51.4929 130.232 61.2639 123.142 70.7661C120.363 74.4902 117.49 78.1434 114.358 81.98Z" fill="#1C7482"/>
<path d="M553.576 31.7213C553.639 59.3553 553.708 86.9892 553.761 114.623C553.782 125.42 553.765 136.218 553.765 147.603C547.917 147.603 542.32 147.603 536.267 147.218C535.838 146.468 535.866 146.102 536.352 145.734C538.81 145.733 540.808 145.734 542.807 145.735C551.418 145.739 551.848 145.311 551.849 136.734C551.853 101.759 551.857 66.7847 552.148 31.7987C552.814 31.7654 553.195 31.7433 553.576 31.7213Z" fill="#1F314F"/>
<path d="M75.2163 10.5311C74.1282 13.0901 72.94 15.9105 71.3068 18.4441C62.7766 31.6763 64.9592 44.812 72.3385 57.351C76.9996 65.2711 82.9771 72.42 88.4096 79.8815C92.2556 85.1639 96.1779 90.3907 100.237 95.8738C103.193 93.2183 105.823 90.8553 108.632 88.2993C106.343 92.0706 103.877 96.0349 100.728 101.095C89.9499 85.8141 79.0689 71.8359 69.8063 56.857C60.1187 41.1908 62.76 23.6311 75.2163 10.5311Z" fill="#1C7482"/>
<path d="M637.428 83.0892C640.243 82.6909 643.501 81.8299 646.772 81.7763C656.861 81.6108 656.873 81.7304 656.772 71.7755C656.757 70.3164 656.599 68.8588 656.465 66.7352C651.442 66.7352 646.663 66.6085 641.893 66.7727C637.578 66.9212 635.312 65.5374 635.702 60.7466C636.025 56.7738 635.884 52.7497 635.741 48.7558C635.514 42.405 633.83 40.765 627.65 40.8185C613.863 40.9377 615.991 39.0728 615.906 52.2968C615.805 68.1257 615.646 83.9606 615.966 99.7837C616.191 110.869 617.175 121.94 617.777 133.463C616.767 130.126 614.992 126.351 614.959 122.56C614.718 95.1309 614.83 67.6984 614.83 39.9777C622.102 39.9777 629.178 39.9777 636.634 39.9777C636.634 47.8809 636.634 55.9438 636.634 64.539C643.858 64.539 650.736 64.539 657.801 64.539C657.801 70.9743 657.801 76.8764 657.801 82.9958C651.078 82.9958 644.477 82.9958 637.428 83.0892Z" fill="#0C1E40"/>
<path d="M25.2961 122.09C25.4005 122.867 26.1948 124.537 25.7221 125.059C23.7719 127.21 21.6891 130.121 19.1863 130.689C15.2576 131.582 10.9073 130.443 6.82448 130.923C5.18616 131.115 2.29245 133.874 2.52887 134.503C3.60732 137.369 0.453217 142.767 6.83931 142.774C11.1586 142.778 15.5401 143.214 19.772 142.607C22.0543 142.28 24.0803 140.166 26.5822 138.807C26.8542 140.722 26.7659 142.687 26.669 144.843C19.4299 144.843 12.3341 145.098 5.28305 144.649C3.69305 144.548 1.34253 142.212 0.94252 140.526C0.0864102 136.917 0.276001 133.059 0 128.716C4.30037 128.716 8.11891 128.27 11.7897 128.816C17.928 129.73 22.2604 127.561 25.2961 122.09Z" fill="#0C1E40"/>
<path d="M158.733 132.107C160.165 133.328 161.913 134.75 162.708 136.585C163.895 139.325 163.439 142.916 168.139 142.832C172.265 142.759 174.201 141.117 174.291 137.004C174.402 131.901 174.664 126.802 174.881 121.702C175.182 114.622 175.502 107.542 175.875 100.02C176.338 101.243 177.069 102.905 177.089 104.576C177.217 115.18 177.213 125.786 177.2 136.392C177.194 141.422 174.708 143.918 168.732 144.712C166.63 144.991 164.46 144.756 162.614 144.756C161.231 140.506 159.926 136.5 158.733 132.107Z" fill="#0C1E40"/>
<path d="M68.5076 132.42C69.8364 134.425 71.1797 136.868 72.8075 139.103C73.8154 140.487 75.2339 142.582 76.505 142.609C88.9605 142.872 101.424 142.767 113.365 142.767C115.126 139.114 116.646 135.96 118.537 132.785C117.757 136.696 116.606 140.629 115.39 144.788C101.193 144.788 86.7632 144.788 72.7138 144.788C71.3413 140.737 69.9917 136.754 68.5076 132.42Z" fill="#0C1E40"/>
<path d="M128.836 100.794C128.818 100.621 128.8 100.448 128.791 99.5641C128.795 96.1515 128.791 93.4496 128.788 90.7477C128.387 87.8751 130.43 83.6143 124.397 83.7031C126.494 80.0284 128.989 76.3658 131.722 72.5079C133.294 75.8111 136.17 75.7343 139.271 75.8143C143.197 75.9157 147.8 74.2136 150.508 78.8143C152.44 82.0957 154.126 85.5211 156.019 88.8262C156.991 90.5236 158.457 91.9817 159.198 93.7572C160.194 96.1407 160.704 98.7267 161.124 101.199C160.801 100.999 160.777 100.826 160.652 100.331C156.83 93.6136 153.193 87.1656 149.318 80.8643C148.514 79.5558 146.879 78.007 145.534 77.9148C140.468 77.5674 135.363 77.7753 129.961 77.7753C129.961 83.6079 129.961 89.0191 129.885 94.9158C129.861 96.7123 129.914 98.0233 130.102 99.5414C130.286 100.095 130.206 100.408 129.705 100.709C129.222 100.752 129.029 100.773 128.836 100.794Z" fill="#0C1E40"/>
<path d="M535.894 145.736C535.866 146.102 535.838 146.468 535.809 147.109C534.096 147.307 532.384 147.229 530.72 146.218C530.745 144.91 530.722 144.536 530.699 144.162C530.438 144.022 530.357 143.813 530.652 142.891C530.807 131.56 530.766 120.87 530.726 110.18C530.634 106.154 530.542 102.128 530.648 97.1817C530.807 90.2327 530.768 84.204 530.729 78.1753C530.628 76.125 530.528 74.0747 530.638 71.1561C530.81 64.9169 530.769 59.5461 530.729 54.1753C530.628 52.1257 530.527 50.0761 530.637 47.1594C530.8 42.5841 530.752 38.876 530.704 35.1679C530.437 35.0438 530.344 34.8404 530.618 34.1137C530.728 33.078 530.643 32.4861 530.558 31.8942C530.842 31.1757 531.122 29.8316 531.41 29.83C538.764 29.7887 546.119 29.8843 553.473 29.9995C553.571 30.001 553.661 30.56 553.665 31.29C553.195 31.7434 552.814 31.7654 551.853 31.4958C544.906 31.2041 538.54 31.2041 532.355 31.2041C532.15 31.9201 532.065 32.0797 532.065 32.2395C532.001 68.9466 531.973 105.654 531.831 142.361C531.819 145.564 533.485 145.885 535.894 145.736Z" fill="#0C1E40"/>
<path d="M352.321 81.7024C352.883 82.6064 353.546 83.7513 353.223 84.425C351.43 88.1728 348.709 91.6079 347.583 95.518C344.85 105.011 345.793 114.72 349.977 123.454C352.669 129.071 357.612 133.605 361.505 138.656C362.071 139.39 362.405 140.302 362.809 141.499C342.565 129.588 339.987 99.5501 351.115 82.0979C351.254 81.8811 351.676 81.8458 352.321 81.7024Z" fill="#0C1E40"/>
<path d="M624.852 144.134C626.912 143.558 628.583 143.288 630.619 145.564C634.544 149.951 650.697 149.249 654.953 145.173C656.322 143.862 656.985 134.11 655.246 133.22C653.412 132.282 650.682 132.479 648.51 132.95C644.512 133.817 642.228 131.726 640.155 128.675C645.951 132.551 651.786 130.713 657.884 128.315C657.884 132.006 657.885 135.312 657.884 138.618C657.881 146.963 657.462 148.011 649.473 149.389C640.842 150.878 632.266 150.492 624.852 144.134Z" fill="#0C1E40"/>
<path d="M37.6931 134.478C37.7244 135.806 37.7956 137.453 37.2068 138.814C34.4381 145.212 35.8383 150.049 42.3643 155.791C45.7216 158.745 50.3294 157.995 55.9878 155.487C63.3328 152.231 62.2217 145.961 62.9078 139.843C66.3405 146.224 62.9802 155.072 55.7664 158.491C48.3588 162.002 39.098 158.557 35.6988 151.027C33.0845 145.235 33.7178 139.787 37.6931 134.478Z" fill="#0C1E40"/>
<path d="M30.9957 130.014C30.8362 129.042 30.4853 127.424 31.109 126.83C37.8905 120.373 45.9308 118.874 55.1055 120.169C59.6999 120.817 63.6258 121.665 66.1706 125.694C66.9957 127.001 67.2681 128.657 67.7397 130.545C57.9959 121.302 49.006 118.907 39.5818 123.843C36.5819 125.414 34.0194 127.82 30.9957 130.014Z" fill="#1F314F"/>
<path d="M411.952 68.8641C409.707 68.6647 406.822 68.9534 404.727 67.8035C393.693 61.7479 382.785 62.3676 371.664 67.3838C369.805 68.2225 367.598 68.2893 365.12 68.6825C380.359 58.7877 396.021 59.8027 411.952 68.8641Z" fill="#0C1E40"/>
<path d="M375.272 86.7507C374.891 84.6316 375.137 83.4726 378.045 83.0075C383.173 82.1877 387.961 80.378 393.448 81.6637C398.096 82.7528 401.74 85.0274 404.375 88.5498C407.109 92.2053 409.688 93.6982 413.801 90.9555C414.392 90.5616 415.413 90.813 416.644 90.8311C413.63 92.693 410.208 94.4895 406.651 96.3562C403.357 89.796 399.285 84.8724 392.022 83.2042C385.86 81.7892 380.835 84.328 375.272 86.7507Z" fill="#0C1E40"/>
<path d="M293.69 93.9802C293.81 92.5392 293.769 90.6352 294.601 89.2614C300.209 80.0106 300.679 69.8623 299.601 59.6046C299.237 56.1313 297.176 52.8362 295.878 49.0791C303.112 56.3214 302.908 65.9437 301.436 75.0476C300.389 81.5211 296.534 87.5405 293.69 93.9802Z" fill="#0C1E40"/>
<path d="M375.848 148.147C376.819 147.489 378.122 146.669 379.048 146.978C392.195 151.354 403.548 147.672 414.058 139.6C415.6 138.416 417.516 137.719 419.628 136.813C410.989 147.455 398.961 150.503 385.74 150.198C382.483 150.123 379.249 149.098 375.848 148.147Z" fill="#0C1E40"/>
<path d="M420.246 136.796C420.528 135.409 420.937 133.792 421.772 132.437C424.686 127.709 424.389 126.73 418.979 124.649C415.768 123.415 412.543 122.215 409.826 121.189C407.349 122.396 405.127 123.48 402.483 124.54C407.381 117.968 408.969 118.417 415.672 120.956C419.811 122.524 423.801 124.487 428.721 126.653C425.895 130.131 423.232 133.409 420.246 136.796Z" fill="#0C1E40"/>
<path d="M127.367 133.698C127.651 134.669 127.907 135.919 127.534 136.937C123.857 146.963 124.518 149.294 132.952 155.179C137.736 158.516 141.887 158.231 146.786 154.395C147.768 153.627 149.073 153.271 150.607 152.779C147.254 159.908 135.771 160.537 129.894 156.328C122.899 151.316 121.792 141.723 127.367 133.698Z" fill="#0C1E40"/>
<path d="M124.219 125.728C125.445 120.186 130.648 119.472 134.968 119.004C140.195 118.438 145.634 119.325 150.882 120.186C151.425 120.276 155.797 121.729 153.941 125.366C147.018 121.739 140.042 118.925 132.174 121.82C129.525 122.794 127.075 124.309 124.219 125.728Z" fill="#0C1E40"/>
<path d="M486.813 144.154C494.166 144.417 501.436 145.093 508.715 145.646C509.343 145.693 510.033 144.92 511.102 144.134C512.241 143.529 512.973 143.317 513.705 143.106C515.016 144.297 516.327 145.488 518.551 147.509C508.36 147.509 499.553 147.637 490.758 147.376C489.389 147.336 488.073 145.527 486.813 144.154Z" fill="#1F314F"/>
<path d="M373.14 121.637C372.249 121.436 370.787 121.262 370.158 120.447C364.825 113.522 364.517 97.9237 370.115 90.9456C370.273 90.7495 370.736 90.7987 371.442 90.7352C369.025 97.7542 366.104 104.802 368.864 112.517C369.955 115.565 371.576 118.423 373.14 121.637Z" fill="#0C1E40"/>
<path d="M115.18 94.554C115.485 103.499 104.589 112.467 97.582 109.002C96.914 108.671 96.4669 107.894 95.9093 106.961C102.433 108.814 104.809 108.057 108.924 102.551C110.886 99.9264 112.922 97.3579 115.18 94.554Z" fill="#0C1E40"/>
<path d="M640.113 127.977C635.472 128.612 636.251 124.581 635.962 122.093C635.468 117.843 635.852 113.496 635.758 109.192C635.587 101.343 635.315 93.496 635.167 85.6465C635.157 85.1153 635.831 84.5712 636.508 83.8889C636.854 94.6465 636.625 105.558 637.045 116.445C637.19 120.209 638.943 123.911 640.113 127.977Z" fill="#0C1E40"/>
<path d="M156.073 66.458C155.079 66.188 153.788 65.7517 153.273 64.8649C149.793 58.8656 145.282 59.6311 139.953 62.6146C143.941 55.3054 149.501 55.1962 153.927 62.3069C154.697 63.5444 155.401 64.8234 156.073 66.458Z" fill="#0C1E40"/>
<path d="M400.428 126.239C399.967 127.281 399.386 128.907 398.299 129.385C392.691 131.85 386.836 132.256 380.947 130.412C380.43 130.25 380.227 129.089 379.904 127.987C386.888 130.962 393.545 129.618 400.428 126.239Z" fill="#0C1E40"/>
<path d="M513.535 142.799C512.973 143.317 512.241 143.529 511.211 143.739C507.865 140.176 504.669 136.726 501.847 132.992C500.85 131.672 500.767 129.66 500.506 127.638C504.952 132.372 509.158 137.433 513.535 142.799Z" fill="#0C1E40"/>
<path d="M57.8151 132.303C56.7663 132.706 55.3416 133.216 54.5526 132.719C50.0522 129.881 45.9949 129.072 42.256 133.966C41.8014 134.561 40.1708 134.258 38.7216 134.121C44.4411 127.803 50.1735 127.234 57.8151 132.303Z" fill="#0C1E40"/>
<path d="M315.437 30.7232C315.426 31.8199 315.368 33.2145 314.712 34.2172C310.677 40.3798 310.688 42.3591 315.047 48.6799C315.387 49.172 315.41 49.8827 315.435 50.8615C308.136 45.2081 308.072 37.7728 315.437 30.7232Z" fill="#0C1E40"/>
<path d="M514.971 67.9791C511.65 67.06 508.643 65.3228 505.477 64.9591C500.587 64.3972 495.589 64.7746 490.16 64.7223C491.175 64.3612 492.664 63.764 494.16 63.7465C502.227 63.6523 510.295 63.702 519.541 63.702C517.667 65.4659 516.44 66.6212 514.971 67.9791Z" fill="#0C1E40"/>
<path d="M144.711 130.382C139.341 131.715 133.879 132.716 128.016 133.658C132.394 128.156 138.201 127.64 144.711 130.382Z" fill="#0C1E40"/>
<path d="M151.252 152.724C151.203 151.117 151.219 149.254 151.802 147.589C153.584 142.493 151.506 138.349 148.907 133.895C153.58 136.08 155.49 142.805 153.254 148.997C152.81 150.226 152.142 151.373 151.252 152.724Z" fill="#0C1E40"/>
<path d="M332.707 50.0117C332.28 49.742 331.839 49.0331 332.003 48.8407C336.748 43.2841 334.342 37.832 331.884 31.9789C337.678 37.4229 337.984 42.74 332.707 50.0117Z" fill="#0C1E40"/>
<path d="M165.96 82.2705C164.731 81.8084 162.907 81.3053 162.207 80.1316C159.858 76.197 157.911 72.0229 155.893 67.6127C159.277 72.164 162.578 77.0431 165.96 82.2705Z" fill="#0C1E40"/>
<path d="M417.309 90.9265C417.376 90.3536 417.666 89.3615 418.26 89.1227C423.23 87.1233 424.592 83.8375 422.337 78.6775C424.158 80.7193 425.781 83.1168 427.687 85.9308C423.984 87.752 420.829 89.3041 417.309 90.9265Z" fill="#0C1E40"/>
<path d="M364.418 68.7018C361.967 71.637 359.186 74.6705 356.028 77.7141C358.464 74.7494 361.276 71.7747 364.418 68.7018Z" fill="#0C1E40"/>
<path d="M475.449 78.7392C476.147 84.878 471.002 86.6409 466.682 89.0984C469.29 85.5339 472.216 82.2063 475.449 78.7392Z" fill="#0C1E40"/>
<path d="M530.566 110.605C530.766 120.87 530.807 131.56 530.779 142.76C530.61 132.524 530.507 121.777 530.566 110.605Z" fill="#1F314F"/>
<path d="M93.1516 103.736C88.8548 103.788 85.8986 100.45 85.4844 94.6073C88.1384 97.3661 90.5606 100.416 93.1516 103.736Z" fill="#0C1E40"/>
<path d="M422.167 77.7748C417.03 77.7227 415.016 73.3329 412.373 69.5329C415.669 71.958 418.835 74.7312 422.167 77.7748Z" fill="#0C1E40"/>
<path d="M500.101 126.596C494.761 126.687 493.899 121.919 491.887 117.955C494.593 120.501 497.259 123.422 500.101 126.596Z" fill="#0C1E40"/>
<path d="M486.421 67.6884C484.76 70.7526 484.164 75.134 479.023 75.673C481.11 72.9799 483.59 70.3487 486.421 67.6884Z" fill="#0C1E40"/>
<path d="M85.1336 93.5766C80.0464 94.3972 79.566 90.7025 79.3626 86.6307C81.3661 88.6525 83.1653 90.9866 85.1336 93.5766Z" fill="#0C1E40"/>
<path d="M315.701 51.5067C319.681 51.4734 323.933 51.6747 328.637 52.0528C324.608 54.9839 320.261 54.1745 315.701 51.5067Z" fill="#0C1E40"/>
<path d="M327.817 29.3719C324.157 30.0402 320.377 30.395 316.148 30.7077C319.323 27.3285 323.557 28.5426 327.817 29.3719Z" fill="#0C1E40"/>
<path d="M465.727 89.4772C466.669 94.3199 462.309 95.398 459.099 97.6574C460.988 94.9937 463.235 92.3251 465.727 89.4772Z" fill="#0C1E40"/>
<path d="M491.859 117.332C487.23 117.59 486.242 113.818 484.889 110.037C487.17 112.114 489.446 114.564 491.859 117.332Z" fill="#0C1E40"/>
<path d="M530.567 78.5988C530.768 84.204 530.807 90.2327 530.779 96.7727C530.61 91.1968 530.507 85.1096 530.567 78.5988Z" fill="#1F314F"/>
<path d="M170.898 90.3354C169.256 88.2282 167.55 85.775 165.904 82.9338C167.588 85.027 169.211 87.5082 170.898 90.3354Z" fill="#0C1E40"/>
<path d="M617.694 134.158C619.377 136.257 621.101 138.716 622.77 141.551C621.056 139.458 619.395 136.988 617.694 134.158Z" fill="#0C1E40"/>
<path d="M530.567 54.5979C530.769 59.5461 530.809 64.9169 530.79 70.7992C530.622 65.8806 530.513 60.4506 530.567 54.5979Z" fill="#1F314F"/>
<path d="M484.787 109.356C482.495 108.061 479.47 106.783 481.366 102.847C482.672 104.882 483.664 106.956 484.787 109.356Z" fill="#0C1E40"/>
<path d="M379.838 127.349C376.69 127.591 373.823 126.903 373.448 122.615C375.67 123.876 377.674 125.465 379.838 127.349Z" fill="#0C1E40"/>
<path d="M139.358 62.6603C138.113 64.8075 136.566 67.1112 134.678 69.2403C135.909 66.9828 137.482 64.8997 139.358 62.6603Z" fill="#0C1E40"/>
<path d="M362.882 142.108C365.08 142.916 367.455 144.019 369.811 145.516C367.548 144.741 365.304 143.572 362.882 142.108Z" fill="#0C1E40"/>
<path d="M175.065 97.1677C173.729 95.4618 172.297 93.4239 170.887 90.9963C172.262 92.683 173.616 94.7594 175.065 97.1677Z" fill="#0C1E40"/>
<path d="M506.331 75.9059C507.597 74.3182 509.149 72.7544 510.998 71.4236C509.735 73.081 508.177 74.5053 506.331 75.9059Z" fill="#0C1E40"/>
<path d="M530.527 35.5746C530.752 38.876 530.8 42.5841 530.788 46.8022C530.602 43.5352 530.476 39.7583 530.527 35.5746Z" fill="#1F314F"/>
<path d="M120.238 130.754C121.045 129.219 122.138 127.515 123.602 125.809C122.823 127.4 121.673 128.993 120.238 130.754Z" fill="#0C1E40"/>
<path d="M288.8 40.401C287.666 39.7672 286.473 38.8142 285.446 37.5406C286.655 38.1739 287.697 39.1278 288.8 40.401Z" fill="#0C1E40"/>
<path d="M117.444 91.694C117.208 92.5555 116.687 93.5425 115.78 94.4425C115.983 93.5103 116.57 92.6648 117.444 91.694Z" fill="#0C1E40"/>
<path d="M329.693 52.1595C330.15 51.5366 330.865 50.7729 331.939 50.1804C331.515 50.9073 330.734 51.463 329.693 52.1595Z" fill="#0C1E40"/>
<path d="M133.96 69.5299C133.756 70.3041 133.375 71.2724 132.652 72.0586C132.801 71.159 133.292 70.4415 133.96 69.5299Z" fill="#0C1E40"/>
<path d="M110.041 86.7577C109.968 86.5967 110.092 86.4083 110.22 86.1693C110.393 86.1804 110.575 86.2503 110.757 86.3202C110.58 86.4543 110.403 86.5883 110.041 86.7577Z" fill="#1C7482"/>
<path d="M478.428 75.6549C478.262 76.2442 477.819 76.9535 477.014 77.6497C477.152 77.016 477.651 76.3954 478.428 75.6549Z" fill="#0C1E40"/>
<path d="M285.006 36.7754C284.503 36.7383 283.782 36.5329 282.948 36.0148C283.486 36.0038 284.137 36.3055 285.006 36.7754Z" fill="#0C1E40"/>
<path d="M330.74 30.588C330.579 30.6185 330.278 30.5756 329.837 30.684C330.01 30.6565 330.312 30.5496 330.74 30.588Z" fill="#0C1E40"/>
<path d="M95.8675 106.416C95.4072 106.399 94.8371 106.128 94.3527 105.519C94.8782 105.508 95.318 105.836 95.8675 106.416Z" fill="#0C1E40"/>
<path d="M530.433 32.1784C530.643 32.4861 530.728 33.078 530.728 33.9684C530.532 33.6655 530.42 33.0641 530.433 32.1784Z" fill="#1F314F"/>
<path d="M119.099 132.641C119.054 132.232 119.243 131.633 119.734 130.923C119.802 131.358 119.567 131.904 119.099 132.641Z" fill="#0C1E40"/>
<path d="M29.825 131.498C29.7876 131.23 29.8145 130.783 30.0491 130.493C30.122 130.866 29.9995 131.089 29.825 131.498Z" fill="#1F314F"/>
<path d="M458.549 97.6902C458.578 98.0685 458.401 98.4881 458.223 98.9078C458.12 98.6624 458.017 98.4169 457.92 97.9131C457.926 97.6548 458.342 97.7317 458.549 97.6902Z" fill="#0C1E40"/>
<path d="M175.976 99.3803C175.67 99.1809 175.301 98.6621 175.015 97.7971C175.369 97.9877 175.641 98.5243 175.976 99.3803Z" fill="#0C1E40"/>
<path d="M118.638 90.2928C118.626 90.6331 118.389 91.0848 117.893 91.6065C117.893 91.2524 118.153 90.8283 118.638 90.2928Z" fill="#0C1E40"/>
<path d="M111.978 84.2598C111.886 84.1522 111.916 84.2124 111.893 84.2168C111.87 84.2212 112.033 84.5635 112.033 84.5635C112.033 84.5635 112.071 84.3674 111.978 84.2598Z" fill="#1C7482"/>
<path d="M511.872 70.9334C511.723 70.839 511.591 70.6919 511.529 70.5199C511.51 70.4662 511.677 70.345 511.949 70.4619C512.139 70.669 511.917 70.8712 511.872 70.9334Z" fill="#0C1E40"/>
<path d="M67.6873 131.113C67.9025 131.096 68.1863 131.328 68.4249 131.848C68.1718 131.879 67.9639 131.62 67.6873 131.113Z" fill="#1F314F"/>
<path d="M512.854 69.9511C512.701 69.8503 512.576 69.6932 512.523 69.5147C512.506 69.4548 512.674 69.3404 512.954 69.4518C513.151 69.6528 512.909 69.8863 512.854 69.9511Z" fill="#0C1E40"/>
<path d="M530.549 144.425C530.722 144.536 530.745 144.91 530.691 145.843C530.544 145.83 530.472 145.259 530.549 144.425Z" fill="#1F314F"/>
<path d="M623.743 143.075C623.965 142.991 624.291 143.169 624.708 143.619C624.481 143.707 624.164 143.522 623.743 143.075Z" fill="#0C1E40"/>
<path d="M476.495 77.6538C476.574 77.8692 476.395 78.1913 475.946 78.6085C475.863 78.3892 476.05 78.0749 476.495 77.6538Z" fill="#0C1E40"/>
<path d="M622.729 142.089C622.957 142.009 623.284 142.194 623.689 142.66C623.454 142.746 623.141 142.55 622.729 142.089Z" fill="#0C1E40"/>
<path d="M513.853 68.956C513.687 68.8496 513.562 68.6833 513.513 68.497C513.496 68.4318 513.666 68.3173 513.968 68.4142C514.184 68.603 513.923 68.8882 513.853 68.956Z" fill="#0C1E40"/>
<path d="M331.906 31.4197C331.694 31.5233 331.379 31.3671 330.952 30.9671C331.161 30.8688 331.481 31.0143 331.906 31.4197Z" fill="#0C1E40"/>
<path d="M292.765 95.0652C292.641 94.8328 292.684 94.4908 293.039 94.2146C293.273 94.5439 293.133 94.7689 292.765 95.0652Z" fill="#0C1E40"/>
<path d="M94.2158 104.926C93.9615 105.021 93.6115 104.942 93.3829 104.563C93.7587 104.364 93.964 104.527 94.2158 104.926Z" fill="#0C1E40"/>
<path d="M295.809 48.4675C295.574 48.5962 295.318 48.4072 294.995 47.9382C295.162 47.8932 295.449 48.0571 295.809 48.4675Z" fill="#0C1E40"/>
<path d="M128.933 101.184C129.029 100.773 129.222 100.752 130.09 100.989C140.762 101.048 150.757 100.851 160.753 100.653C160.777 100.826 160.801 100.999 160.834 101.434C159.804 102.049 158.768 102.698 157.726 102.708C149.158 102.792 140.588 102.796 132.02 102.706C131.02 102.696 130.027 101.969 128.933 101.184Z" fill="#1F314F"/>
<path d="M128.527 91.0108C128.791 93.4496 128.795 96.1515 128.776 99.3036C128.59 96.9273 128.428 94.1006 128.527 91.0108Z" fill="#1F314F"/>
<path d="M239.529 50.8293C239.881 63.2668 239.881 75.7409 239.881 88.8056C246.743 88.8056 253.328 88.8056 260.374 89.1367C260.842 89.8562 260.849 90.2446 260.856 90.633C254.675 90.8825 248.494 91.3025 242.312 91.3224C238.071 91.3362 238.058 87.6746 237.928 84.849C237.668 79.2359 237.885 73.6022 237.833 67.9777C237.793 63.6863 237.5 59.3921 237.62 55.1075C237.66 53.6802 238.631 52.279 239.529 50.8293Z" fill="#1F314F"/>
<path d="M261.238 90.6005C260.849 90.2446 260.842 89.8562 260.842 89.1755C276.837 86.1258 282.773 71.5114 273.887 56.159C277.791 54.8829 279.169 58.3909 279.325 60.6148C279.821 67.6883 280.771 74.8241 276.722 81.6266C273.149 87.6306 267.707 89.3796 261.238 90.6005Z" fill="#0C1E40"/>
<path d="M273.021 54.6114C264.724 49.3123 255.633 50.6248 246.772 50.5354C244.777 50.5152 242.781 50.5291 240.337 50.6557C241.36 49.8761 242.858 48.149 244.298 48.1966C252.016 48.452 259.738 48.9766 267.417 49.7977C269.774 50.0497 271.999 51.5314 274.285 52.4499C273.965 53.1232 273.645 53.7964 273.021 54.6114Z" fill="#1F314F"/>
<path d="M110.161 50.6065C110.241 49.8343 110.524 48.9232 111.114 48.3043C116.301 42.8619 117.396 35.3438 113.842 29.0764C110.492 23.1681 103.688 20.3207 96.696 21.9007C90.8411 23.2238 85.9762 29.4992 85.6329 36.1716C85.2416 43.7773 89.1124 49.4223 96.6994 52.3295C95.4253 52.6917 93.8938 53.0595 92.5139 52.7505C90.6449 52.3318 88.8922 51.3942 86.8622 50.589C86.1099 47.918 85.0277 44.8622 84.4083 41.7153C83.0597 34.8634 83.12 27.9312 89.1961 23.3488C95.455 18.6287 102.338 18.8342 109.792 21.8608C116.745 24.6845 116.849 30.7233 117.54 35.967C118.299 41.7287 116.608 47.538 110.161 50.6065Z" fill="#1C7482"/>
<path d="M313.878 119.743C313.876 103.91 313.857 88.5772 313.88 73.2446C313.889 67.0866 314.288 66.6376 320.388 66.7291C333.523 66.926 332.842 64.2194 332.82 79.3408C332.791 98.8399 332.824 118.339 332.805 137.838C332.798 145.472 332.51 145.733 325.028 145.735C323.362 145.736 321.688 145.637 320.03 145.754C315.675 146.061 313.974 143.618 313.911 139.741C313.805 133.243 313.879 126.742 313.878 119.743Z" fill="#02396C"/>
<path d="M536.353 145.734C533.485 145.885 531.819 145.564 531.831 142.361C531.973 105.654 532 68.9466 532.065 32.2395C532.065 32.0797 532.15 31.9201 532.355 31.2041C538.54 31.2041 544.906 31.2041 551.567 31.507C551.857 66.7847 551.853 101.759 551.849 136.734C551.848 145.311 551.418 145.739 542.807 145.735C540.808 145.734 538.81 145.733 536.353 145.734Z" fill="#02396C"/>
<path d="M535.02 129.881C534.923 127.016 535.129 125.352 537.17 125.364C560.56 125.506 583.95 125.534 607.341 125.597C607.443 125.598 607.545 125.683 608.001 125.888C608.001 132.067 608.001 138.427 607.808 145.082C585.328 145.372 563.041 145.367 540.755 145.363C535.29 145.362 535.017 144.933 535.019 136.33C535.02 134.333 535.02 132.336 535.02 129.881Z" fill="#02396C"/>
<path d="M129.885 94.9158C130.068 95.8431 130.174 97.2559 130.123 99.0015C129.913 98.0233 129.861 96.7123 129.885 94.9158Z" fill="#1F314F"/>
</svg>
