<svg width="226" height="75" viewBox="0 0 226 75" fill="none" xmlns="http://www.w3.org/2000/svg">
<rect x="0.75" y="54.5178" width="65.8298" height="7.74468" rx="1" fill="#02396C"/>
<rect x="0.75" y="23.5391" width="34.8511" height="23.234" rx="5" fill="#02396C"/>
<path d="M57.867 33.22L65.4125 44.837H50.3215L57.867 33.22Z" fill="#02396C"/>
<rect x="43.75" y="44" width="23.234" height="15.4894" fill="#02396C"/>
<rect x="43.3458" y="31.2838" width="13.5532" height="13.5532" fill="#02396C"/>
<circle cx="12.367" cy="62.2625" r="5.80851" fill="#02396C"/>
<circle cx="54.9627" cy="62.2625" r="5.80851" fill="#02396C"/>
<path d="M18.95 62.0044H43.2167V54.421H4.54167C3.83693 54.421 3.48458 54.421 3.19156 54.4793C1.98827 54.7186 1.04763 55.6592 0.80827 56.8626C0.75 57.1556 0.75 57.5081 0.75 58.2127C0.75 58.9173 0.75 59.2698 0.80827 59.5628C1.04763 60.7662 1.98827 61.7068 3.19156 61.9461C3.48458 62.0044 3.83693 62.0044 4.54167 62.0044H6.81667" stroke="white" stroke-width="1.5" stroke-linecap="round" stroke-linejoin="round"/>
<path d="M49.2833 62.0044H43.2167V37.7377C43.2167 34.8778 43.2167 33.4479 44.1051 32.5595C44.9936 31.671 46.4235 31.671 49.2833 31.671H51.5134C54.8689 31.671 56.5467 31.671 57.9374 32.4585C59.3282 33.2459 60.1915 34.6846 61.9178 37.5618L65.7543 43.956C66.6134 45.3878 67.0432 46.1039 67.2631 46.8987C67.4833 47.6934 67.4833 48.5285 67.4833 50.1983V55.9377C67.4833 58.7975 67.4833 60.2274 66.5949 61.1159C65.7064 62.0044 64.2765 62.0044 61.4167 62.0044M49.2833 62.0044C49.2833 65.355 51.9994 68.071 55.35 68.071C58.7006 68.071 61.4167 65.355 61.4167 62.0044M49.2833 62.0044C49.2833 58.6537 51.9994 55.9377 55.35 55.9377C58.7006 55.9377 61.4167 58.6537 61.4167 62.0044M65.9667 46.8377H58.3833C55.5235 46.8377 54.0936 46.8377 53.2051 45.9492C52.3167 45.0608 52.3167 43.6309 52.3167 40.771V39.2544" stroke="white" stroke-width="1.5" stroke-linecap="round" stroke-linejoin="round"/>
<path d="M18.9499 62.0044C18.9499 65.355 16.2338 68.071 12.8833 68.071C9.53273 68.071 6.81659 65.355 6.81659 62.0044C6.81659 58.6538 9.53273 55.9377 12.8833 55.9377C16.2338 55.9377 18.9499 58.6538 18.9499 62.0044Z" stroke="white" stroke-width="1.5" stroke-linecap="round" stroke-linejoin="round"/>
<path d="M1.36634 28.7961C0.968461 30.6263 0.75 32.6193 0.75 34.7044C0.75 36.7894 0.968461 38.7824 1.36634 40.6127C1.87916 42.9717 2.13557 44.1514 3.80211 45.4945C5.46865 46.8377 7.14375 46.8377 10.494 46.8377H25.8893C29.2397 46.8377 30.9147 46.8377 32.5812 45.4945C34.2477 44.1514 34.5043 42.9717 35.017 40.6127C35.4149 38.7824 35.6333 36.7894 35.6333 34.7044C35.6333 32.6193 35.4149 30.6263 35.017 28.7961C34.5043 26.437 34.2477 25.2574 32.5812 23.9142C30.9147 22.571 29.2397 22.571 25.8893 22.571H10.494C7.14375 22.571 5.46865 22.571 3.80211 23.9142C2.13557 25.2574 1.87916 26.437 1.36634 28.7961Z" stroke="white" stroke-width="1.5" stroke-linecap="round" stroke-linejoin="round"/>
<path d="M24.2583 22.571V46.8377M12.125 46.8377V22.571" stroke="white" stroke-width="1.5" stroke-linecap="round" stroke-linejoin="round"/>
<circle cx="33.1348" cy="19.3848" r="10.7693" fill="#D9D9D9"/>
<path d="M19.7812 6.03125C27.1562 -1.34369 39.1131 -1.34367 46.4883 6.03125C53.8632 13.4062 53.8632 25.3631 46.4883 32.7383L33.1348 46.0918L19.7812 32.7383C12.4063 25.3631 12.4063 13.4062 19.7812 6.03125ZM33.1348 10.2695C28.1004 10.2695 24.0195 14.3504 24.0195 19.3848C24.0195 24.419 28.1004 28.5 33.1348 28.5C38.169 28.5 42.25 24.419 42.25 19.3848C42.25 14.3504 38.169 10.2695 33.1348 10.2695ZM33.1348 15.5771C35.2378 15.5771 36.9424 17.2818 36.9424 19.3848C36.9424 21.4878 35.2378 23.1924 33.1348 23.1924C31.0318 23.1924 29.3271 21.4878 29.3271 19.3848C29.3272 17.2818 31.0318 15.5772 33.1348 15.5771Z" fill="#0591A6" stroke="white"/>
<path d="M80.392 62.071V27.1619H94.8125C97.4261 27.1619 99.6818 27.6733 101.58 28.696C103.489 29.7074 104.96 31.1222 105.994 32.9404C107.028 34.7472 107.545 36.8494 107.545 39.2472C107.545 41.6563 107.017 43.7642 105.96 45.571C104.915 47.3665 103.42 48.7585 101.477 49.7472C99.5341 50.7358 97.2273 51.2301 94.5568 51.2301H85.6591V44.5824H92.9886C94.2614 44.5824 95.3239 44.3608 96.1761 43.9176C97.0398 43.4744 97.6932 42.8551 98.1364 42.0597C98.5795 41.2529 98.8011 40.3154 98.8011 39.2472C98.8011 38.1676 98.5795 37.2358 98.1364 36.4517C97.6932 35.6563 97.0398 35.0426 96.1761 34.6108C95.3125 34.179 94.25 33.9631 92.9886 33.9631H88.8295V62.071H80.392ZM111.705 62.071V35.8892H120.04V62.071H111.705ZM115.881 32.8381C114.71 32.8381 113.705 32.4517 112.864 31.679C112.023 30.8949 111.602 29.9517 111.602 28.8494C111.602 27.7585 112.023 26.8267 112.864 26.054C113.705 25.2699 114.71 24.8779 115.881 24.8779C117.063 24.8779 118.068 25.2699 118.898 26.054C119.739 26.8267 120.159 27.7585 120.159 28.8494C120.159 29.9517 119.739 30.8949 118.898 31.679C118.068 32.4517 117.063 32.8381 115.881 32.8381ZM137.567 62.5654C134.805 62.5654 132.436 61.9972 130.459 60.8608C128.493 59.7244 126.982 58.1449 125.925 56.1222C124.868 54.0881 124.339 51.7358 124.339 49.0654C124.339 46.3835 124.868 44.0313 125.925 42.0085C126.993 39.9744 128.51 38.3892 130.476 37.2529C132.453 36.1165 134.811 35.5483 137.55 35.5483C139.97 35.5483 142.078 35.9858 143.874 36.8608C145.68 37.7358 147.089 38.9744 148.101 40.5767C149.124 42.1676 149.663 44.0369 149.72 46.1847H141.93C141.771 44.8438 141.317 43.7926 140.567 43.0313C139.828 42.2699 138.862 41.8892 137.669 41.8892C136.703 41.8892 135.857 42.1619 135.129 42.7074C134.402 43.2415 133.834 44.0369 133.425 45.0938C133.027 46.1392 132.828 47.4347 132.828 48.9801C132.828 50.5256 133.027 51.8324 133.425 52.9006C133.834 53.9574 134.402 54.7585 135.129 55.304C135.857 55.8381 136.703 56.1051 137.669 56.1051C138.442 56.1051 139.124 55.9404 139.714 55.6108C140.317 55.2813 140.811 54.7983 141.197 54.1619C141.584 53.5142 141.828 52.7301 141.93 51.8097H149.72C149.641 53.9688 149.101 55.8551 148.101 57.4688C147.112 59.0824 145.72 60.3381 143.925 61.2358C142.141 62.1222 140.021 62.5654 137.567 62.5654ZM161.503 55.2017L161.537 45.2642H162.696L170.06 35.8892H179.503L168.56 49.321H166.361L161.503 55.2017ZM153.986 62.071V27.1619H162.321V62.071H153.986ZM170.247 62.071L163.395 51.196L168.884 45.2813L179.878 62.071H170.247ZM182.486 62.071V27.1619H190.923V55.2188H205.446V62.071H182.486ZM223.514 35.8892V42.0256H206.997V35.8892H223.514ZM210.457 29.6165H218.793V53.8381C218.793 54.3494 218.872 54.7642 219.031 55.0824C219.202 55.3892 219.446 55.6108 219.764 55.7472C220.082 55.8722 220.463 55.9347 220.906 55.9347C221.224 55.9347 221.56 55.9063 221.912 55.8494C222.276 55.7813 222.548 55.7244 222.73 55.679L223.991 61.696C223.594 61.8097 223.031 61.9517 222.304 62.1222C221.588 62.2926 220.73 62.4006 219.73 62.446C217.776 62.5369 216.099 62.3097 214.702 61.7642C213.315 61.2074 212.253 60.3438 211.514 59.1733C210.787 58.0029 210.435 56.5313 210.457 54.7585V29.6165Z" fill="white"/>
</svg>
